/* XPM */
static char * spike_1_xpm[] = {
"16 32 7 1",
" 	c #00FF00",
".	c #E3D7C7",
"+	c #D5CDC3",
"@	c #2A2217",
"#	c #B9B1A7",
"$	c #262A38",
"%	c #9D9285",
"                ",
"                ",
"                ",
"                ",
"                ",
"                ",
"                ",
"                ",
"                ",
"                ",
"                ",
"                ",
"   .            ",
"   .        .   ",
"   +.      ..   ",
"  .+.      +..  ",
"  +..      +.+  ",
"  +.+    . .++  ",
"  @#+    . .#@  ",
" $@%@$  ..$@%@$ ",
"  $$$   +. $$$  ",
"       .+.      ",
"   .   .++  .   ",
"   .   ++#  .   ",
"  ..  $@%@$ +.  ",
"  +.+  $$$  ..  ",
"  .+.      .+.  ",
"  ++.      ++.  ",
"  @+.      +#+  ",
" $@%@$    $@%@$ ",
"  $$$      $$$  ",
"                "};
