/* XPM */
static char * Coin_1_xpm[] = {
"16 32 3 1",
" 	c #00FF00",
".	c #262A38",
"+	c #353949",
"                ",
"                ",
"                ",
"                ",
"                ",
"                ",
"                ",
"                ",
"                ",
"                ",
"                ",
"                ",
"                ",
"                ",
"                ",
"                ",
"                ",
"                ",
"  ...      ...  ",
" .+++.    .+++. ",
"  ...      ...  ",
"                ",
"                ",
"       ...      ",
"      .+++.     ",
"       ...      ",
"                ",
"                ",
"  ...      ...  ",
" .+++.    .+++. ",
"  ...      ...  ",
"                "};
