/* XPM */
static char * spike_2_xpm[] = {
"16 32 5 1",
" 	c #00FF00",
".	c #2A2217",
"+	c #B9B1A7",
"@	c #262A38",
"#	c #9D9285",
"                ",
"                ",
"                ",
"                ",
"                ",
"                ",
"                ",
"                ",
"                ",
"                ",
"                ",
"                ",
"                ",
"                ",
"   .        .   ",
"   .        .   ",
"  .+.      .+.  ",
"  .+.      .+.  ",
"  .+.      .+.  ",
" @.#.@  . @.#.@ ",
"  @@@   .  @@@  ",
"       .+.      ",
"       .+.      ",
"       .+.      ",
"   .  @.#.@ .   ",
"   .   @@@  .   ",
"  .+.      .+.  ",
"  .+.      .+.  ",
"  .+.      .+.  ",
" @.#.@    @.#.@ ",
"  @@@      @@@  ",
"                "};
