/* XPM */
static char * G001_01_xpm[] = {
"32 32 11 1",
" 	c #00FF00",
".	c #000000",
"+	c #FFE28C",
"@	c #FFAB66",
"#	c #FF7040",
"$	c #661A40",
"%	c #FFFFFF",
"&	c #000000",
"*	c #000000",
"=	c #000000",
"-	c #FFFFFF",
"                                ",
"                                ",
"                                ",
"                                ",
"                                ",
"                                ",
"                                ",
"                                ",
"            $$$$$$$$            ",
"            ########            ",
"          $#@++++++@#$          ",
"          #@@++++++@#$          ",
"        $#@@@@@@@@@@##$$        ",
"        $#@+@@@@@@@@##$$        ",
"        $#@@@@@@@@@@##$$        ",
"        $$@@@@@@@@@@##$$        ",
"        $$@@@@@@@@@@##$$        ",
"        $$@@@@@@@@@@##$$        ",
"        $$@@@@@@@@@@##$$        ",
"        $$#@@@@@@@@@##$$        ",
"          $##########$          ",
"          $$########$$          ",
"            $$$$$$$$            ",
"            $$$$$$$$            ",
"                                ",
"                                ",
"                                ",
"                                ",
"                                ",
"                                ",
"                                ",
"                                "};
