/* XPM */
static char * Coin_4_xpm[] = {
"32 32 65 1",
" 	c #00FF00",
".	c #661A40",
"+	c #9D7A5A",
"@	c #A17F5D",
"#	c #A27F5D",
"$	c #A27859",
"%	c #A16951",
"&	c #9D5C4C",
"*	c #9D785A",
"=	c #D0B274",
"-	c #E3C57D",
";	c #E4C67E",
">	c #E3C67D",
",	c #E4BA76",
"'	c #E3A367",
")	c #D08658",
"!	c #9D5A4B",
"~	c #9D5B4B",
"{	c #C0875C",
"]	c #EBB773",
"^	c #FFCC7E",
"/	c #FFCD7E",
"(	c #FFC277",
"_	c #FFAC67",
":	c #EB8D57",
"<	c #C06349",
"[	c #9D3D40",
"}	c #EB975D",
"|	c #F99A5D",
"1	c #FF9B5D",
"2	c #FF9559",
"3	c #FF8A51",
"4	c #F97C49",
"5	c #EB6B43",
"6	c #D05840",
"7	c #9D3C40",
"8	c #A1604D",
"9	c #E3955E",
"0	c #FF9F5E",
"a	c #FF844D",
"b	c #FF7040",
"c	c #FF6F3F",
"d	c #FF7140",
"e	c #E36240",
"f	c #A13F40",
"g	c #A2604D",
"h	c #E4965E",
"i	c #FF834C",
"j	c #FF6E3F",
"k	c #FF6D3E",
"l	c #E46240",
"m	c #A23F40",
"n	c #A1594A",
"o	c #E38A57",
"p	c #FF9457",
"q	c #FF7F4A",
"r	c #FF6F40",
"s	c #A14944",
"t	c #E37249",
"u	c #FF7E49",
"v	c #FF7644",
"w	c #E36140",
"x	c #EB6640",
"y	c #F96D40",
"z	c #C04F40",
"                                ",
"                                ",
"            ........            ",
"            +@#@@$%&            ",
"          .*=-;>-,')!.          ",
"          ~{]^//^(_:<[          ",
"        .~)}|1111234567.        ",
"        .890abcbbbbdbef.        ",
"        .gh0ijkjjjcbblm.        ",
"        .nopqbrbbbbdbef.        ",
"        .stuvbbbbbbdbef.        ",
"        .febdbbbbbbdbef.        ",
"        .fwrbbbbbbbdbef.        ",
"        .mlbdbbbbbbdblm.        ",
"        .febdbbbbbbdbef.        ",
"        .76xyddddddyx67.        ",
"          [zxbbbbbbxz[          ",
"          .[6eleele6[.          ",
"            7fmffmf7            ",
"            ........            ",
"                                ",
"                                ",
"                                ",
"                                ",
"                                ",
"                                ",
"                                ",
"                                ",
"                                ",
"                                ",
"                                ",
"                                "};
