/* XPM */
static char * Coin_3_xpm[] = {
"32 32 48 1",
" 	c #00FF00",
".	c #661A40",
"+	c #9D795A",
"@	c #A27F5C",
"#	c #A27F5D",
"$	c #9D7A5B",
"%	c #9E785A",
"&	c #D1B274",
"*	c #E4C77E",
"=	c #A17658",
"-	c #E3BA76",
";	c #FFD482",
">	c #FFD080",
",	c #E3B271",
"'	c #A17155",
")	c #A26951",
"!	c #E4A467",
"~	c #FFB56D",
"{	c #FFA563",
"]	c #E48756",
"^	c #A25548",
"/	c #A1604D",
"(	c #E3955E",
"_	c #FF9F5E",
":	c #FF844D",
"<	c #E36240",
"[	c #A13D3F",
"}	c #A15F4C",
"|	c #E3945D",
"1	c #FF9E5D",
"2	c #FF824C",
"3	c #E3603F",
"4	c #A13C3F",
"5	c #A25849",
"6	c #E48A57",
"7	c #FF9557",
"8	c #FF804A",
"9	c #E46240",
"0	c #A23E40",
"a	c #A14944",
"b	c #E37249",
"c	c #FF7F49",
"d	c #FF7644",
"e	c #A13F40",
"f	c #9D3D40",
"g	c #D05840",
"h	c #9D3B40",
"i	c #A23F40",
"              ....              ",
"              +@#$              ",
"            .%&**&%.            ",
"            .=-;>,'.            ",
"            .)!~{]^.            ",
"            ./(_:<[.            ",
"            .}|1234.            ",
"            ./(_:<[.            ",
"            ./(_:<[.            ",
"            ./(_:<[.            ",
"            ./(_:<[.            ",
"            ./(_:<[.            ",
"            ./(_:<[.            ",
"            ./(_:<[.            ",
"            ./(_:<[.            ",
"            .567890.            ",
"            .abcd<e.            ",
"            .fg99gf.            ",
"              h0if              ",
"              ....              ",
"                                ",
"                                ",
"                                ",
"                                ",
"                                ",
"                                ",
"                                ",
"                                ",
"                                ",
"                                ",
"                                ",
"                                "};
