/* XPM */
static char * Coin_2_xpm[] = {
"32 32 61 1",
" 	c #00FF00",
".	c #661A40",
"+	c #9D785A",
"@	c #A17E5C",
"#	c #A27E5C",
"$	c #9D795A",
"%	c #D0B274",
"&	c #E3C57D",
"*	c #E4C67E",
"=	c #C09B68",
"-	c #EBC37B",
";	c #FFD583",
">	c #FFD684",
",	c #EBBC76",
"'	c #C07F58",
")	c #9D3D40",
"!	c #EBC37A",
"~	c #F9C076",
"{	c #FFBD72",
"]	c #FFBD73",
"^	c #F9AB68",
"/	c #EB8151",
"(	c #D05840",
"_	c #9D393F",
":	c #A17758",
"<	c #E3BA76",
"[	c #FFCB7D",
"}	c #FFB86F",
"|	c #FFAB66",
"1	c #FFAA66",
"2	c #FF9F5E",
"3	c #FF834C",
"4	c #E36240",
"5	c #A13D3F",
"6	c #A26851",
"7	c #E4A467",
"8	c #FFB069",
"9	c #FFAA65",
"0	c #FF9E5D",
"a	c #E46240",
"b	c #A23E3F",
"c	c #A15F4C",
"d	c #E3955E",
"e	c #FFAC66",
"f	c #A15E4C",
"g	c #E3945D",
"h	c #A25F4C",
"i	c #E4965E",
"j	c #FFAC67",
"k	c #A23D3F",
"l	c #9D5B4B",
"m	c #D08658",
"n	c #EB985E",
"o	c #F99D5E",
"p	c #F99257",
"q	c #EB7549",
"r	c #9D3B40",
"s	c #C06A4C",
"t	c #EB7A4C",
"u	c #C05743",
"v	c #9D3A3F",
"                                ",
"                                ",
"            ........            ",
"            +@#@@#@$            ",
"          .+%&*&&*&%+.          ",
"          $=-;>;;>;,')          ",
"        .+%!~{{{{]{^/(_.        ",
"        .:<[}|1||||2345.        ",
"        .67}81911|103ab.        ",
"        .cd|e||||||2345.        ",
"        .fg1e||||||2345.        ",
"        .cd|e||||||2345.        ",
"        .cd|e||||||2345.        ",
"        .hiej||||j|23ak.        ",
"        .cd|e||||||2345.        ",
"        .lmno222222pq(r.        ",
"          lst333333qu)          ",
"          .)(4a44a4().          ",
"            v5b55k5r            ",
"            ........            ",
"                                ",
"                                ",
"                                ",
"                                ",
"                                ",
"                                ",
"                                ",
"                                ",
"                                ",
"                                ",
"                                ",
"                                "};
