/* XPM */
static char * Door Opened_xpm[] = {
"39 32 242 2",
"  	c #000000",
". 	c #382312",
"+ 	c #352212",
"@ 	c #2D1D10",
"# 	c #3B2717",
"$ 	c #322012",
"% 	c #563E25",
"& 	c #856C4C",
"* 	c #6F5236",
"= 	c #51361F",
"- 	c #8D7453",
"; 	c #816647",
"> 	c #100803",
", 	c #0F0703",
"' 	c #846A4B",
") 	c #66472C",
"! 	c #523720",
"~ 	c #886F4E",
"{ 	c #8A7151",
"] 	c #64462D",
"^ 	c #130A04",
"/ 	c #896F4E",
"( 	c #866C4D",
"_ 	c #67462A",
": 	c #8C7353",
"< 	c #8F7756",
"[ 	c #6A4B31",
"} 	c #64452B",
"| 	c #8E7556",
"1 	c #816749",
"2 	c #644429",
"3 	c #836A4A",
"4 	c #977F5D",
"5 	c #8B7253",
"6 	c #22150A",
"7 	c #63442A",
"8 	c #927B5C",
"9 	c #7B6144",
"0 	c #65452A",
"a 	c #7E6343",
"b 	c #978060",
"c 	c #211409",
"d 	c #0E0602",
"e 	c #755A40",
"f 	c #91795B",
"g 	c #7B6143",
"h 	c #634228",
"i 	c #806646",
"j 	c #9B8465",
"k 	c #8F7757",
"l 	c #442D1A",
"m 	c #1E1207",
"n 	c #907A5D",
"o 	c #8D7455",
"p 	c #6B4D30",
"q 	c #644328",
"r 	c #896F51",
"s 	c #937B5C",
"t 	c #66472D",
"u 	c #1E1107",
"v 	c #90795D",
"w 	c #6A4D30",
"x 	c #634329",
"y 	c #513720",
"z 	c #897052",
"A 	c #917857",
"B 	c #1E1106",
"C 	c #8F785C",
"D 	c #886E4F",
"E 	c #604634",
"F 	c #583219",
"G 	c #50331C",
"H 	c #796049",
"I 	c #806447",
"J 	c #1D0F06",
"K 	c #7D6347",
"L 	c #786351",
"M 	c #5C402E",
"N 	c #5E3D23",
"O 	c #4C2F19",
"P 	c #705134",
"Q 	c #7C6956",
"R 	c #836F5A",
"S 	c #61422B",
"T 	c #1E1006",
"U 	c #705C47",
"V 	c #74624D",
"W 	c #5C3B21",
"X 	c #623F25",
"Y 	c #482912",
"Z 	c #7A5E3F",
"` 	c #75583D",
" .	c #816B53",
"..	c #5D3C25",
"+.	c #1D1006",
"@.	c #5E3C22",
"#.	c #5A371E",
"$.	c #694C2F",
"%.	c #614127",
"&.	c #492912",
"*.	c #7F6545",
"=.	c #755839",
"-.	c #68472A",
";.	c #58341C",
">.	c #7D6244",
",.	c #7D6343",
"'.	c #664A2D",
").	c #614027",
"!.	c #210E04",
"~.	c #583D2B",
"{.	c #785C3D",
"].	c #846A4A",
"^.	c #816747",
"/.	c #5C3A22",
"(.	c #1C0E05",
"_.	c #7C6244",
":.	c #7C6242",
"<.	c #563725",
"[.	c #44220F",
"}.	c #705843",
"|.	c #6B492C",
"1.	c #816646",
"2.	c #583820",
"3.	c #7C6144",
"4.	c #775B3C",
"5.	c #65472B",
"6.	c #553724",
"7.	c #6C523C",
"8.	c #7F6344",
"9.	c #5A381F",
"0.	c #7A5F40",
"a.	c #765A3B",
"b.	c #5F442D",
"c.	c #5C3C23",
"d.	c #52351E",
"e.	c #735638",
"f.	c #7C6142",
"g.	c #55331C",
"h.	c #745D44",
"i.	c #634025",
"j.	c #5C3920",
"k.	c #442512",
"l.	c #735536",
"m.	c #795C3D",
"n.	c #7B5F40",
"o.	c #53311A",
"p.	c #795E3E",
"q.	c #735739",
"r.	c #634126",
"s.	c #5A361E",
"t.	c #3E1F0D",
"u.	c #6F4F31",
"v.	c #76593B",
"w.	c #54321B",
"x.	c #1A0B04",
"y.	c #785E3F",
"z.	c #725638",
"A.	c #5A3A24",
"B.	c #59351C",
"C.	c #6B523E",
"D.	c #694A2F",
"E.	c #745839",
"F.	c #53301A",
"G.	c #160802",
"H.	c #5E402C",
"I.	c #62442F",
"J.	c #573C29",
"K.	c #522C15",
"L.	c #3D1E0C",
"M.	c #633F24",
"N.	c #6E5B48",
"O.	c #5D3F2D",
"P.	c #4E2B16",
"Q.	c #170802",
"R.	c #6E5945",
"S.	c #71604D",
"T.	c #563824",
"U.	c #583C29",
"V.	c #40200D",
"W.	c #66503E",
"X.	c #614430",
"Y.	c #725F4A",
"Z.	c #52321F",
"`.	c #573724",
" +	c #593A26",
".+	c #5C371D",
"++	c #543725",
"@+	c #43220F",
"#+	c #5E4331",
"$+	c #5C3A21",
"%+	c #623E25",
"&+	c #573825",
"*+	c #4D2915",
"=+	c #6F5234",
"-+	c #6F5134",
";+	c #542E16",
">+	c #5D4836",
",+	c #5D4331",
"'+	c #604835",
")+	c #715335",
"!+	c #512E18",
"~+	c #160702",
"{+	c #765A3C",
"]+	c #735738",
"^+	c #583A26",
"/+	c #563A28",
"(+	c #3D1C08",
"_+	c #6A5745",
":+	c #512F19",
"<+	c #5F4635",
"[+	c #59412F",
"}+	c #4E3220",
"|+	c #2E1405",
"1+	c #6A5642",
"2+	c #624A39",
"3+	c #4E2B17",
"4+	c #705E4B",
"5+	c #6B5846",
"6+	c #5A4432",
"7+	c #3C1D0B",
"8+	c #5E4532",
"9+	c #796958",
"0+	c #685441",
"a+	c #502F1B",
"b+	c #705E4C",
"c+	c #040100",
"d+	c #351908",
"e+	c #786958",
"f+	c #695542",
"g+	c #4F2E1B",
"h+	c #6E5946",
"i+	c #533522",
"j+	c #301303",
"k+	c #766654",
"l+	c #675340",
"m+	c #502E1B",
"n+	c #070201",
"o+	c #271004",
"p+	c #170702",
"q+	c #270F03",
"r+	c #281004",
"s+	c #271105",
"                                                                              ",
"                        . +                       @ # $                       ",
"                      % & *                       = - ; >                     ",
"                    , ' ' )                       ! ~ { ]                     ",
"                    ^ / ( _                       ! : < [                     ",
"                    } | 1 2                       ! 3 4 5 6                   ",
"                    7 8 9 0                       ! a b | c                   ",
"                  d e f g h                       ! i j k l                   ",
"                  m n o p q                       ! i r s t                   ",
"                  u v { w x                       y i z A }                   ",
"                  B C D E F                       G H I { x                   ",
"                  J K L M N                       O P Q R S                   ",
"                  T U V W X                       Y Z `  ...                  ",
"                  +.@.#.$.%.                      &.*.=.-.;.                  ",
"                  +.>.,.'.).!.                    ~.{.].^./.                  ",
"                  (._.:.'.<.[.                    }.|.1.1 2.                  ",
"                  (.3.4.5.6.[.                    7.|.8.,.9.                  ",
"                  +.0.a.b.c.!.                    d.e.f.:.g.                  ",
"                  (.h.a.i.j.                      k.l.m.n.o.                  ",
"                  (.p.q.r.s.                      t.u.v.a.w.                  ",
"                  x.y.z.A.B.                      t.C.D.E.F.                  ",
"                  G.H.I.J.K.                      L.M.N.O.P.                  ",
"                  Q.R.S.T.U.V.                    W.B.X.Y.Z.                  ",
"                  G.`. +.+++@+                    #+$+%+&+*+                  ",
"                  Q.=+-+;+>+[.                    ,+'+P )+!+                  ",
"                  ~+{+]+^+/+                      (+_+D.q.:+                  ",
"                  G.#+<+[+}+                      |+1+2+#+3+                  ",
"                  ~+4+5+6+7+                        8+9+0+a+                  ",
"                  ~+b+5+6.c+                        d+e+f+g+                  ",
"                  ~+h+_+i+                          j+k+l+m+                  ",
"                  n+o+o+p+                            q+r+s+                  ",
"                                                                              "};
