/* XPM */
static char * enemy_2_xpm[] = {
"32 32 12 1",
" 	c #00FF00",
".	c #873AD5",
"+	c #C95AF8",
"@	c #F899DA",
"#	c #222034",
"$	c #9BADB7",
"%	c #CBDBFC",
"&	c #FFFFFF",
"*	c #847E87",
"=	c #000000",
"-	c #3F3F74",
";	c #DF7126",
"                                ",
"                                ",
"               ...              ",
"              ......            ",
"         ......++......         ",
"        .....+++++++....        ",
"       ..++++++++++++++..       ",
"      ..++++++++@@+++++...      ",
"      .++@@@@+++@@@@++++..      ",
"      .+@@@@@######@++++..      ",
"     ..++@@@#$%&&%$##+++..      ",
"     ..++@@#*%%&&&&%$#++..      ",
"    ...++@#*$%%&&&&&%#+++.      ",
"    ...++@#$%%%%&&&&%$#++..     ",
"    ...++@#*$$%===$%==#+++.     ",
"     ..++@#-*$$$=;%%=;#+++...   ",
"     .+++@@#-*$%%&&=&&#++++++.  ",
"    ..+++@@&#-$%&&&&&%#++++++.. ",
"    ..++++@@&#%&=&=&=#++++++++. ",
"    ..++++@@&#%&&=&=&#++++++++..",
"   ...++++@&&&#$%&&%#++++++++...",
"   ...+++++@@@@#####++++++++... ",
"     .+++++++@@@@@+@++++++....  ",
"     ...+++++++@@++@@+++++..    ",
"      ...++++++++++++++++..     ",
"       .....++++++++++++...     ",
"           ....++++++.....      ",
"             ........           ",
"               .....            ",
"                                ",
"                                ",
"                                "};
