/* XPM */
static char * exit_2_xpm[] = {
"32 32 10 1",
" 	c #00FF00",
".	c #7C4A37",
"+	c #6D3F2D",
"@	c #373737",
"#	c #2D2D2D",
"$	c #303030",
"%	c #563326",
"&	c #482A1F",
"*	c #2E2E2E",
"=	c #111111",
"                                ",
"                                ",
"                                ",
"                                ",
"                                ",
"                                ",
"           .+         .+        ",
"          .+++       ++++       ",
"         +++ ++     .++ ++      ",
"         .+  ++     ++  ++      ",
"         .+  ++     ++  ++      ",
"         .+         .+          ",
"         .+@@@@@@#@@.+          ",
"      @$@.+%%%%%%%%&.+@@@       ",
"    @@@@$.+%%&&&&&&&++@@*@@     ",
"   @@$@@@.+#@@#@@@@@++@*@@@@    ",
"   @$@@@@++=========++*@@@@@    ",
"   =@@===++=========++===@@=    ",
"   ======++%%%%%%%%&++======    ",
"   ======.+&&&&&&&&&++======    ",
"   ======.+=========++======    ",
"    =====.+=========++=====     ",
"      ===++=========++===       ",
"          +&%%%%%%%&+           ",
"                                ",
"                                ",
"                                ",
"                                ",
"                                ",
"                                ",
"                                ",
"                                "};
