/* XPM */
static char * exit_xpm[] = {
"32 32 8 1",
" 	c #00FF00",
".	c #373737",
"+	c #292929",
"@	c #1E1E1F",
"#	c #303030",
"$	c #2D2D2D",
"%	c #2E2E2E",
"&	c #111111",
"                                ",
"                                ",
"                                ",
"                                ",
"                                ",
"                                ",
"                                ",
"                                ",
"                                ",
"                                ",
"                                ",
"                                ",
"          ...++++@...           ",
"      .#.....$+++........       ",
"    ....#...$.+++.......%..     ",
"   ..#.....$..@++......%....    ",
"   .#.....&&&&&&&&&&&%%.....    ",
"   &..&&&&&&&&&&&&&&&&&&&..&    ",
"   &&&&&&&&&&&&&&&&&&&&&&&&&    ",
"   &&&&&&&&&&&&&&&&&&&&&&&&&    ",
"   &&&&&&&&&&&&&&&&&&&&&&&&&    ",
"    &&&&&&&&&&&&&&&&&&&&&&&     ",
"      &&&&&&&&&&&&&&&&&&&       ",
"          &&&&&&&&&&&           ",
"                                ",
"                                ",
"                                ",
"                                ",
"                                ",
"                                ",
"                                ",
"                                "};
