/* XPM */
static char * exit_xpm[] = {
"32 32 329 2",
"  	c #000000",
". 	c #0A0502",
"+ 	c #301F10",
"@ 	c #312010",
"# 	c #301E0F",
"$ 	c #342112",
"% 	c #080402",
"& 	c #020101",
"* 	c #3C2817",
"= 	c #6B5137",
"- 	c #65492F",
"; 	c #846948",
"> 	c #826848",
", 	c #725236",
"' 	c #826747",
") 	c #816546",
"! 	c #5D4027",
"~ 	c #5D4228",
"{ 	c #331E0F",
"] 	c #27180B",
"^ 	c #5F4229",
"/ 	c #8A7152",
"( 	c #947B5B",
"_ 	c #7D6145",
": 	c #8D7456",
"< 	c #8B7253",
"[ 	c #785B3F",
"} 	c #897050",
"| 	c #715437",
"1 	c #7F6646",
"2 	c #75593C",
"3 	c #573821",
"4 	c #1F1006",
"5 	c #28180C",
"6 	c #765B3E",
"7 	c #7A5E42",
"8 	c #83684A",
"9 	c #876E4F",
"0 	c #735539",
"a 	c #7C6040",
"b 	c #785C3C",
"c 	c #705133",
"d 	c #7B5F3E",
"e 	c #7D6242",
"f 	c #6C4C30",
"g 	c #7A6043",
"h 	c #7F6546",
"i 	c #6F5034",
"j 	c #61452B",
"k 	c #1E0E05",
"l 	c #553B25",
"m 	c #866C4D",
"n 	c #705235",
"o 	c #7E6243",
"p 	c #806545",
"q 	c #745638",
"r 	c #7D6241",
"s 	c #735536",
"t 	c #7C6241",
"u 	c #725536",
"v 	c #7B6141",
"w 	c #7B5F40",
"x 	c #75583A",
"y 	c #7B5F41",
"z 	c #482E1A",
"A 	c #28180B",
"B 	c #785E41",
"C 	c #795E3F",
"D 	c #715335",
"E 	c #7F6444",
"F 	c #7C6141",
"G 	c #745637",
"H 	c #7D6342",
"I 	c #745738",
"J 	c #7B6040",
"K 	c #7A5E3E",
"L 	c #745839",
"M 	c #6D5137",
"N 	c #1D0D04",
"O 	c #3C2513",
"P 	c #7D6244",
"Q 	c #765B3B",
"R 	c #725335",
"S 	c #7F6443",
"T 	c #7F6445",
"U 	c #76583A",
"V 	c #755839",
"W 	c #7E6342",
"X 	c #7C6140",
"Y 	c #7A603F",
"Z 	c #7E6446",
"` 	c #2E1708",
" .	c #361E0F",
"..	c #694B31",
"+.	c #6D4E32",
"@.	c #6B4B31",
"#.	c #73563A",
"$.	c #79614B",
"%.	c #735437",
"&.	c #7A5F40",
"*.	c #7B6140",
"=.	c #705337",
"-.	c #775F49",
";.	c #6C4E33",
">.	c #6D5035",
",.	c #684A30",
"'.	c #2C1406",
").	c #331B0C",
"!.	c #735D46",
"~.	c #796852",
"{.	c #7C6B57",
"].	c #7F6E5A",
"^.	c #826F58",
"/.	c #7C6751",
"(.	c #765B3C",
"_.	c #76593A",
":.	c #7E6442",
"<.	c #795D3D",
"[.	c #7D6A56",
"}.	c #7C6C57",
"|.	c #7B6A55",
"1.	c #79664F",
"2.	c #776550",
"3.	c #715B44",
"4.	c #2C1306",
"5.	c #60432D",
"6.	c #644933",
"7.	c #644A36",
"8.	c #674E39",
"9.	c #705A46",
"0.	c #6A4E35",
"a.	c #664A31",
"b.	c #6D5843",
"c.	c #644934",
"d.	c #634832",
"e.	c #5F422D",
"f.	c #311809",
"g.	c #6C4E31",
"h.	c #705334",
"i.	c #6A4A2E",
"j.	c #6F5033",
"k.	c #725436",
"l.	c #6F5134",
"m.	c #765A3A",
"n.	c #6F5234",
"o.	c #321808",
"p.	c #705335",
"q.	c #6E5134",
"r.	c #785D3D",
"s.	c #6E5032",
"t.	c #76593B",
"u.	c #7A5F3F",
"v.	c #795E3E",
"w.	c #705436",
"x.	c #735738",
"y.	c #6E5234",
"z.	c #2C1507",
"A.	c #301708",
"B.	c #715435",
"C.	c #6F5235",
"D.	c #795E3D",
"E.	c #715436",
"F.	c #775C3C",
"G.	c #795D3C",
"H.	c #765A3B",
"I.	c #75593A",
"J.	c #705437",
"K.	c #725637",
"L.	c #6E5133",
"M.	c #301809",
"N.	c #735737",
"O.	c #6F5133",
"P.	c #745939",
"Q.	c #735A43",
"R.	c #745D47",
"S.	c #765C44",
"T.	c #795F3E",
"U.	c #755A3B",
"V.	c #775C3B",
"W.	c #6F5335",
"X.	c #6B5034",
"Y.	c #2B1407",
"Z.	c #2E1507",
"`.	c #6F5236",
" +	c #785D3C",
".+	c #715D48",
"++	c #73604C",
"@+	c #705B46",
"#+	c #755939",
"$+	c #755A3A",
"%+	c #6C4F31",
"&+	c #6A4E31",
"*+	c #2A1306",
"=+	c #695139",
"-+	c #654E39",
";+	c #654E3A",
">+	c #6B4D30",
",+	c #6A4D30",
"'+	c #2B1306",
")+	c #66472C",
"!+	c #694B2F",
"~+	c #67482D",
"{+	c #6D5033",
"]+	c #715841",
"^+	c #6C4E32",
"/+	c #624228",
"(+	c #5B3921",
"_+	c #634429",
":+	c #735A42",
"<+	c #65452B",
"[+	c #65472C",
"}+	c #624329",
"|+	c #2A1206",
"1+	c #6F5A45",
"2+	c #75644F",
"3+	c #786651",
"4+	c #7B6A56",
"5+	c #796551",
"6+	c #735638",
"7+	c #7A6652",
"8+	c #786752",
"9+	c #776651",
"0+	c #74624E",
"a+	c #73614C",
"b+	c #6C5843",
"c+	c #2A1105",
"d+	c #5C402B",
"e+	c #614732",
"f+	c #634B37",
"g+	c #644C38",
"h+	c #6D5945",
"i+	c #62462F",
"j+	c #715537",
"k+	c #725738",
"l+	c #6C4D30",
"m+	c #624630",
"n+	c #6A5540",
"o+	c #614935",
"p+	c #604733",
"q+	c #614631",
"r+	c #2D1407",
"s+	c #66462B",
"t+	c #694A2E",
"u+	c #634328",
"v+	c #6C4F32",
"w+	c #67492E",
"x+	c #6A4B2E",
"y+	c #694B2E",
"z+	c #705234",
"A+	c #65462B",
"B+	c #68482C",
"C+	c #654429",
"D+	c #291206",
"E+	c #684A2E",
"F+	c #6B4E31",
"G+	c #67462B",
"H+	c #6B4F33",
"I+	c #6C5034",
"J+	c #6B5035",
"K+	c #604228",
"L+	c #694E33",
"M+	c #715536",
"N+	c #705435",
"O+	c #62432B",
"P+	c #67482C",
"Q+	c #64452A",
"R+	c #6D5844",
"S+	c #725E4A",
"T+	c #725F4C",
"U+	c #73604D",
"V+	c #74614E",
"W+	c #75624E",
"X+	c #73614F",
"Y+	c #776655",
"Z+	c #665041",
"`+	c #796858",
" @	c #776451",
".@	c #715F4C",
"+@	c #705E4B",
"@@	c #6F5C4A",
"#@	c #6A5644",
"$@	c #291104",
"%@	c #6C5947",
"&@	c #705E4C",
"*@	c #705F4C",
"=@	c #72604D",
"-@	c #73624F",
";@	c #776653",
">@	c #756652",
",@	c #786956",
"'@	c #695544",
")@	c #796A57",
"!@	c #776753",
"~@	c #756552",
"{@	c #746451",
"]@	c #72614E",
"^@	c #6F5E4B",
"/@	c #6D5B49",
"(@	c #6A5745",
"_@	c #2D1507",
":@	c #634E3B",
"<@	c #66523F",
"[@	c #685542",
"}@	c #695642",
"|@	c #6B5945",
"1@	c #6C5A46",
"2@	c #6F5F4B",
"3@	c #644E3C",
"4@	c #6F5E4A",
"5@	c #6D5C48",
"6@	c #695541",
"7@	c #66513E",
"8@	c #614B38",
"9@	c #291105",
"0@	c #240F05",
"a@	c #442A1A",
"b@	c #452C1C",
"c@	c #462D1D",
"d@	c #472E1E",
"e@	c #462D1E",
"f@	c #482F20",
"g@	c #493121",
"h@	c #452A1A",
"i@	c #483020",
"j@	c #472F1F",
"k@	c #472E1F",
"l@	c #452B1C",
"m@	c #442919",
"n@	c #210D04",
"                                                                ",
"                                                                ",
"                                                                ",
"                                                                ",
"                          . + @ # $ $ %                         ",
"                    & * = - ; > , ' ) ! ~ {                     ",
"                  ] ^ / ( _ : < [ } } | 1 2 3 4                 ",
"                5 6 7 8 9 0 a b c d e f g h i j k               ",
"                l m n o p q r r s t t u v w x y z               ",
"              A B C D E p q F r G H e I J K L F M N             ",
"              O P Q R S T U F F V W e V X J Q Y Z `             ",
"               ...+.@.#.$.%.&.*.U S r =.-.=.;.>.,.'.            ",
"              ).!.~.{.].^./.(.J _.:.<.[.}.|.1.2.3.4.            ",
"              ).5.6.7.8.9.0.&.v U S r a.b.c.d.d.e.'.            ",
"              f.g.h.i.x j.c C Y U S r k.l.m.n.D g.'.            ",
"              o.p.I q.C r.s.r.Y t.H X L u.v.w.x.y.z.            ",
"              A.B.x.C.D.Q E.F.G.H.H F I.v.F.J.K.L.z.            ",
"              M.p.N.O.K P.w.I.Q.R.S.T.U.V.F.W.w.X.Y.            ",
"              Z.y.K.`. +x.p.p..+++@+#+U.Q $+%+y.&+*+            ",
"              Z.n.x.q.U.K.C.W.=+-+;+E.x.Q P.>+L.,+'+            ",
"              Z.)+!+~+{+]+^+x./+(+_+K.q.:+g.<+[+}+|+            ",
"              Z.1+2+3+|.4+5+p.6+g.x.E.7+8+9+0+a+b+c+            ",
"              Z.d+e+f+g+h+i+j+k+l+x.K.m+n+o+p+q+d+|+            ",
"              r+s+t+u+v+w+t+j+j+t+w.W.x+y+z+A+B+C+D+            ",
"              r+E+F+G+v+H+s+I+J+K+&+L+~+M+N+O+P+Q+D+            ",
"              r+R+S+T+U+V+W+X+Y+Z+`+ @W+.@.@+@@@#@$@            ",
"              r+%@&@*@=@-@;@>@,@'@)@!@~@{@]@^@/@(@$@            ",
"              _@:@<@[@}@|@1@1@2@3@4@5@5@|@}@6@7@8@9@            ",
"              0@a@b@c@c@d@e@f@g@h@i@j@j@k@c@c@l@m@n@            ",
"                                                                ",
"                                                                ",
"                                                                "};
