/* XPM */
static char * fenemy_4_xpm[] = {
"32 32 13 1",
" 	c #00FF00",
".	c #873AD5",
"+	c #C95AF8",
"@	c #222034",
"#	c #9BADB7",
"$	c #CBDBFC",
"%	c #FFFFFF",
"&	c #847E87",
"*	c #F899DA",
"=	c #000000",
"-	c #DF7126",
";	c #3F3F74",
">	c #FDEEE5",
"                                ",
"                                ",
"                                ",
"       ...          ...         ",
"     .......       .....        ",
"    ....++..      .......       ",
"    ..+++++....   ..+++...      ",
"    ..+++++++......+++++..      ",
"     ..+++++++++++++++++.       ",
"      .+++++++++++++++++.       ",
"     ..+++++@@@@@@+++++++..     ",
"    ..++++@@#$%%$#@++++++.+.    ",
"   ...+++@#$%%%%$$&@*++++++..   ",
"   ...+++@$%%%%%$$#&@**++++..   ",
"   ..+++@#$%%%%$$$$#@****++...  ",
"   ..+++@==$#===$##&@****+++..  ",
"    .+++@-=$$-=###&;@****+++.   ",
"   ..+++@%%=%%$$#&;@%%%*+++..   ",
"   ...++@$%%%%%$#;@%>%**+++...  ",
"    ..+++@=%=%=%$@%%***+++++..  ",
"    ..++++@=====$@******++++..  ",
"     .+++@%===%%$@*****+++++..  ",
"     .++++@$%%$#@*****++++++..  ",
"     .+++++@@@@@*****++++++..   ",
"    ..++++++++++**++++++...     ",
"    ..+++++++++++*+++++..       ",
"     ..++++++++++++++...        ",
"      ......+++++++....         ",
"       ......+++......          ",
"            .......             ",
"              ....              ",
"                                "};
