/* XPM */
static char * floor_xpm[] = {
"32 32 496 2",
"  	c #454551",
". 	c #4A4A59",
"+ 	c #4C4C5B",
"@ 	c #4C4C5A",
"# 	c #545461",
"$ 	c #555562",
"% 	c #686871",
"& 	c #73737A",
"* 	c #75757D",
"= 	c #5F5F68",
"- 	c #43434F",
"; 	c #484856",
"> 	c #4E4E5D",
", 	c #494958",
"' 	c #434354",
") 	c #2C2C39",
"! 	c #3B3B4B",
"~ 	c #404051",
"{ 	c #4A4A5C",
"] 	c #464657",
"^ 	c #444455",
"/ 	c #565664",
"( 	c #4A4A5A",
"_ 	c #484858",
": 	c #4B4B5B",
"< 	c #4C4C5C",
"[ 	c #4E4E5C",
"} 	c #52525F",
"| 	c #585864",
"1 	c #5A5A66",
"2 	c #50505E",
"3 	c #32323C",
"4 	c #474757",
"5 	c #525263",
"6 	c #4F4F60",
"7 	c #5A5A68",
"8 	c #5D5D6B",
"9 	c #5B5B69",
"0 	c #5F5F6D",
"a 	c #787882",
"b 	c #76767F",
"c 	c #4F4F5C",
"d 	c #515162",
"e 	c #535364",
"f 	c #4E4E61",
"g 	c #49495C",
"h 	c #32323F",
"i 	c #3F3F50",
"j 	c #4B4B5E",
"k 	c #565669",
"l 	c #484859",
"m 	c #525264",
"n 	c #575768",
"o 	c #555565",
"p 	c #545465",
"q 	c #535363",
"r 	c #5D5D6C",
"s 	c #63636F",
"t 	c #6E6E7A",
"u 	c #60606D",
"v 	c #33333F",
"w 	c #49495A",
"x 	c #696976",
"y 	c #61616E",
"z 	c #636371",
"A 	c #5E5E6D",
"B 	c #61616F",
"C 	c #595965",
"D 	c #595967",
"E 	c #535362",
"F 	c #565665",
"G 	c #49495B",
"H 	c #474759",
"I 	c #2E2E3A",
"J 	c #3C3C4D",
"K 	c #4D4D61",
"L 	c #4F4F62",
"M 	c #47475A",
"N 	c #555566",
"O 	c #545464",
"P 	c #515160",
"Q 	c #73737E",
"R 	c #64646F",
"S 	c #646471",
"T 	c #626271",
"U 	c #32323E",
"V 	c #464655",
"W 	c #4E4E5E",
"X 	c #575766",
"Y 	c #6B6B76",
"Z 	c #71717B",
"` 	c #70707B",
" .	c #5F5F6E",
"..	c #4E4E5F",
"+.	c #565663",
"@.	c #767681",
"#.	c #2E2E38",
"$.	c #414151",
"%.	c #4E4E60",
"&.	c #4D4D60",
"*.	c #515161",
"=.	c #5E5E6C",
"-.	c #71717D",
";.	c #5E5E6B",
">.	c #5E5E6E",
",.	c #60606F",
"'.	c #585865",
").	c #60606E",
"!.	c #676774",
"~.	c #5A5A69",
"{.	c #33333E",
"].	c #444453",
"^.	c #494959",
"/.	c #71717C",
"(.	c #74747F",
"_.	c #7A7A84",
":.	c #6F6F7A",
"<.	c #51515F",
"[.	c #686874",
"}.	c #70707A",
"|.	c #6C6C77",
"1.	c #373741",
"2.	c #50505F",
"3.	c #5A5A6A",
"4.	c #585869",
"5.	c #595969",
"6.	c #585867",
"7.	c #7B7B83",
"8.	c #636370",
"9.	c #5F5F6C",
"0.	c #31313D",
"a.	c #40404F",
"b.	c #72727D",
"c.	c #777781",
"d.	c #797983",
"e.	c #767680",
"f.	c #6C6C78",
"g.	c #7C7C84",
"h.	c #4B4B51",
"i.	c #62626D",
"j.	c #6C6C79",
"k.	c #626270",
"l.	c #565667",
"m.	c #818188",
"n.	c #72727B",
"o.	c #6F6F7B",
"p.	c #6D6D79",
"q.	c #696975",
"r.	c #5B5B6A",
"s.	c #363642",
"t.	c #777780",
"u.	c #6D6D77",
"v.	c #666670",
"w.	c #73737D",
"x.	c #818187",
"y.	c #47474E",
"z.	c #67676F",
"A.	c #6B6B78",
"B.	c #5C5C6B",
"C.	c #474758",
"D.	c #77777F",
"E.	c #73737C",
"F.	c #7E7E85",
"G.	c #7A7A83",
"H.	c #6A6A76",
"I.	c #5D5D6D",
"J.	c #393945",
"K.	c #30303C",
"L.	c #373742",
"M.	c #3E3E47",
"N.	c #4C4C52",
"O.	c #4D4D53",
"P.	c #494950",
"Q.	c #42424A",
"R.	c #3D3D44",
"S.	c #45454D",
"T.	c #494951",
"U.	c #4D4D54",
"V.	c #515158",
"W.	c #58585C",
"X.	c #525257",
"Y.	c #35353A",
"Z.	c #45454C",
"`.	c #4F4F56",
" +	c #43434C",
".+	c #3D3D47",
"++	c #353540",
"@+	c #2C2C35",
"#+	c #3D3D45",
"$+	c #47474F",
"%+	c #383841",
"&+	c #49494F",
"*+	c #535358",
"=+	c #4E4E56",
"-+	c #45454E",
";+	c #3F3F4A",
">+	c #27272F",
",+	c #545463",
"'+	c #565662",
")+	c #61616B",
"!+	c #696972",
"~+	c #686870",
"{+	c #60606B",
"]+	c #404048",
"^+	c #3E3E49",
"/+	c #545460",
"(+	c #585863",
"_+	c #60606A",
":+	c #68686F",
"<+	c #6F6F76",
"[+	c #53535D",
"}+	c #4A4A57",
"|+	c #4D4D5A",
"1+	c #62626C",
"2+	c #5A5A64",
"3+	c #535360",
"4+	c #454555",
"5+	c #484857",
"6+	c #4D4D5C",
"7+	c #31313C",
"8+	c #4B4B55",
"9+	c #464653",
"0+	c #555561",
"a+	c #6B6B73",
"b+	c #63636C",
"c+	c #60606C",
"d+	c #474755",
"e+	c #616170",
"f+	c #787883",
"g+	c #797982",
"h+	c #33333D",
"i+	c #6D6D78",
"j+	c #666672",
"k+	c #30303A",
"l+	c #494956",
"m+	c #4F4F5E",
"n+	c #656571",
"o+	c #5C5C6A",
"p+	c #686875",
"q+	c #75757F",
"r+	c #525261",
"s+	c #6A6A75",
"t+	c #585868",
"u+	c #32323D",
"v+	c #4A4A58",
"w+	c #4F4F5D",
"x+	c #5C5C68",
"y+	c #555563",
"z+	c #6E6E7B",
"A+	c #6B6B75",
"B+	c #383843",
"C+	c #505060",
"D+	c #4B4B5A",
"E+	c #777782",
"F+	c #72727C",
"G+	c #6E6E79",
"H+	c #747480",
"I+	c #646470",
"J+	c #2D2D37",
"K+	c #444452",
"L+	c #797981",
"M+	c #8D8D93",
"N+	c #8C8C92",
"O+	c #88888F",
"P+	c #7C7C85",
"Q+	c #74747E",
"R+	c #5C5C69",
"S+	c #525262",
"T+	c #4A4A5B",
"U+	c #8C8C93",
"V+	c #7D7D84",
"W+	c #535359",
"X+	c #6D6D75",
"Y+	c #89898F",
"Z+	c #98989C",
"`+	c #9A9A9D",
" @	c #909095",
".@	c #88888E",
"+@	c #7A7A82",
"@@	c #84848A",
"#@	c #75757E",
"$@	c #62626F",
"%@	c #393944",
"&@	c #61616D",
"*@	c #757580",
"=@	c #7F7F87",
"-@	c #929297",
";@	c #8C8C90",
">@	c #929296",
",@	c #676769",
"'@	c #868689",
")@	c #99999D",
"!@	c #9D9DA0",
"~@	c #919196",
"{@	c #8D8D92",
"]@	c #8B8B90",
"^@	c #8A8A90",
"/@	c #87878E",
"(@	c #7D7D85",
"_@	c #787881",
":@	c #6A6A77",
"<@	c #545462",
"[@	c #575765",
"}@	c #7C7C86",
"|@	c #6D6D76",
"1@	c #8C8C91",
"2@	c #5D5D60",
"3@	c #7F7F83",
"4@	c #939397",
"5@	c #8B8B91",
"6@	c #696973",
"7@	c #85858B",
"8@	c #86868C",
"9@	c #505055",
"0@	c #505056",
"a@	c #4E4E54",
"b@	c #4A4A52",
"c@	c #484850",
"d@	c #3C3C46",
"e@	c #26262E",
"f@	c #404049",
"g@	c #3B3B44",
"h@	c #2F2F3A",
"i@	c #34343E",
"j@	c #474750",
"k@	c #3A3A43",
"l@	c #43434B",
"m@	c #33333C",
"n@	c #44444D",
"o@	c #46464E",
"p@	c #29292E",
"q@	c #4A4A4F",
"r@	c #515156",
"s@	c #4C4C54",
"t@	c #54545A",
"u@	c #5B5B5F",
"v@	c #53535B",
"w@	c #76767D",
"x@	c #717178",
"y@	c #65656F",
"z@	c #575764",
"A@	c #454554",
"B@	c #424251",
"C@	c #4B4B59",
"D@	c #3E3E48",
"E@	c #4A4A56",
"F@	c #5C5C67",
"G@	c #61616C",
"H@	c #676771",
"I@	c #5F5F6A",
"J@	c #64646D",
"K@	c #4B4B56",
"L@	c #686872",
"M@	c #43434A",
"N@	c #565666",
"O@	c #5C5C6C",
"P@	c #515163",
"Q@	c #4C4C5F",
"R@	c #4D4D5F",
"S@	c #34343F",
"T@	c #51515E",
"U@	c #666671",
"V@	c #5D5D6A",
"W@	c #676773",
"X@	c #686876",
"Y@	c #595968",
"Z@	c #73737F",
"`@	c #393943",
" #	c #7E7E86",
".#	c #505063",
"+#	c #4C4C5E",
"@#	c #4F4F63",
"##	c #343440",
"$#	c #666673",
"%#	c #656573",
"&#	c #656574",
"*#	c #555564",
"=#	c #656570",
"-#	c #363640",
";#	c #434352",
">#	c #83838B",
",#	c #828289",
"'#	c #808087",
")#	c #696974",
"!#	c #4F4F5F",
"~#	c #363641",
"{#	c #7F7F86",
"]#	c #76767E",
"^#	c #6C6C76",
"/#	c #353541",
"(#	c #7B7B85",
"_#	c #84848B",
":#	c #4F4F61",
"<#	c #505062",
"[#	c #454553",
"}#	c #6F6F78",
"|#	c #686873",
"1#	c #85858C",
"2#	c #8F8F94",
"3#	c #606070",
"4#	c #5B5B6B",
"5#	c #5E5E6F",
"6#	c #4C4C59",
"7#	c #87878C",
"8#	c #505061",
"9#	c #6F6F79",
"0#	c #7F7F88",
"a#	c #383844",
"b#	c #3A3A44",
"c#	c #525256",
"d#	c #56565B",
"e#	c #5A5A5E",
"f#	c #606063",
"g#	c #59595D",
"h#	c #545459",
"i#	c #40404A",
"j#	c #25252D",
"k#	c #4B4B53",
"l#	c #55555B",
"m#	c #3B3B43",
"n#	c #44444C",
"o#	c #3A3A46",
"p#	c #292930",
"q#	c #464656",
"r#	c #78787E",
"s#	c #68686D",
"t#	c #6C6C74",
"u#	c #6E6E77",
"v#	c #5D5D69",
"w#	c #414152",
"x#	c #51515C",
"y#	c #64646E",
"z#	c #6F6F77",
"A#	c #63636A",
"B#	c #4F4F53",
"C#	c #6D6D71",
"D#	c #7B7B81",
"E#	c #5A5A65",
"F#	c #4D4D5B",
"G#	c #414150",
"H#	c #6D6D74",
"I#	c #4A4A5D",
"J#	c #48485D",
"K#	c #858589",
"L#	c #48485A",
"M#	c #6C6C73",
"N#	c #808088",
"O#	c #7D7D87",
"P#	c #6B6B79",
"Q#	c #4B4B5F",
"R#	c #49495E",
"S#	c #5E5E62",
"T#	c #828286",
"U#	c #646472",
"V#	c #585866",
"W#	c #5F5F6F",
"X#	c #7A7A80",
"Y#	c #7C7C83",
"Z#	c #6A6A73",
"`#	c #48485B",
" $	c #48485C",
".$	c #47475B",
"+$	c #707077",
"@$	c #575763",
"#$	c #666675",
"$$	c #636372",
"%$	c #4D4D5D",
"&$	c #59596A",
"*$	c #666674",
"=$	c #525265",
"-$	c #49495D",
";$	c #4A4A5F",
">$	c #515165",
",$	c #7D7D83",
"'$	c #646473",
")$	c #676775",
"!$	c #74747B",
"~$	c #696977",
"{$	c #565668",
"]$	c #505064",
"^$	c #4A4A5E",
"/$	c #6B6B77",
"($	c #5A5A67",
"_$	c #3B3B45",
":$	c #505057",
"<$	c #3A3A3E",
"[$	c #3C3C47",
"}$	c #31313E",
"|$	c #2E2E3B",
"1$	c #2E2E3C",
"2$	c #2F2F3B",
"3$	c #333340",
"4$	c #464650",
"5$	c #373743",
"6$	c #41414B",
"7$	c #4A4A51",
"  . + @ # $ % & * = - ; > , ' ) ! ~ { ] ^ / ( _ : < [ } | 1 2 3 ",
"4 5 6 7 8 9 0 a b c ] d e f g h i j k l m n 5 o p q r s t u r v ",
"w m o x y z A B C . D E F G H I J K L M N O , P , O B Q R S T U ",
"V W X Y Z `  .p .., +.@.a t y #.$.%.f &.*.E =.-.;.>.,.'.).!.~.{.",
"].^.7 /.(._.:.s F <.[.-.}.:.|.1.2.3.o 4.5.6.Z 7.Y 8.y =.9.!.~.0.",
"a.p ).b.c.d.(.e.Y ).f.:.` d.g.h.i.j.k.l.6 X Z g.m.n.:.o.p.q.r.s.",
"4 A =.@./.t.u.Z v.q.o.}.w.m.x.y.z.(.A.B.C.o D D.7.E.F.G.Y H.I.J.",
"K.L.M.N.O.P.Q.R.S.T.U.P.V.W.X.Y.Z.`. +.+0.++@+#+$+%+&+*+=+-+;+>+",
"> ,+'+)+!+~+{+]+^+/+(+_+:+<+[+}+|+1+2+3+4+5+6+7+8+9+0+a+b+c+0+d+",
"e+~.y f+g+w.=.h+: 3.8.n.G.i+1 n F j+p.,+C.n P k+l+m+~.q.n+u o+B.",
"~.=.p+e.q+p.=.++r+3.9 w.Z H.q.8 B (.s+E %.t+q u+v+6+w+;.j+x+y+r.",
"z x z+c.d.A+y B+E o C+q.E ' D+;.E+F+G+Y H+I+E J+K+o L+M+N+O+@.=.",
"P+Q /.q+Q+b.R+++> O S+u u T+] z Z Z Z m.U+V+D.W+X+e.Y+Z+`+ @.@+@",
"@@#@E+w.e.a $@%@, 3.z 0 I+y+&@Q+a q+*@=@-@;@>@,@'@)@!@~@{@{@]@^@",
"/@(@_@Z Q+(.$@%@< A :@;.S <@[@f.}@w.}.* |@7.1@2@3@4@5@6@n.O+7@8@",
"W.9@0@a@b@c@d@e@U d@f@ +g@h@i@j@`.k@l@m@d@n@o@p@q@2@r@]+s@t@X.u@",
"v@w@x@~+y@y@/+5+,+2.z@5+A@B@C@d@D@| 2+E@F@G@6@H@I@F@J@K@}+_+L@M@",
"|+G+7.E.Y `  .N@O@B.,.6 P@Q@R@S@T@y u.U@V@p.W@H.$@X@D Y@D+Z@q+`@",
"@ ~.[. #w.z+R+r+5.e+N@&..#+#@###w+9.}.t.}.H.$#%#:@/.8.&#*#X@=#-#",
";#8 a >#,#'#)#6.I.t+!#R@+#&.P@~#c =.o.{#]#W@j+^#c.Q -.r O l.N@/#",
"B@T (#V+_#,#'#I+Y@O :#<#G f Q@s.[#P 0 g+}#W@q.Y u.` j.k. .O@N s.",
"< =.|#'#1#2#^@s+B / q e+3#P@.#/#5+4.0 '.c W@:.S $@|.H.7 4#o 5#s.",
"6#,+s /@,#1@^@7#,#_@t S  .S+R@##;#8#O F y 9#0#n+$@|.|.).3.5.5.a#",
"m@b#T.c#d#e#f#g#e#d#h#n@i#%@s.j#/#L.D@S.k#l#X.Q.m#n#$+D@o#a#J.p#",
"q#@ C@/+X+& r#e#s#t#t#u#v#w+' i w#[ x#1 y#z#A#B#C#D#E#3+2.F#r+G#",
"T+S+o W 9 L+m.U.H#(@d.(#j+5.I#J#j t+=.p+F+Y t.W.K# @=#8 6.8 B.L#",
"..N@S+n q 8.A+P.M#N#a O#P#l.Q#R#Q#e F  .Y@s +@S#T#2##@~.y+U#V#C+",
"z ~. .W#r.y j+o@x@]#a d.f.O g Q#g 5 4.d S+x /@f#X# @Y#Y@r.H.=.k.",
"9.I.D D 5.X D n@Z#}@_.P+=#p `# $.$.#m 5 !#4#s+U.+$@@1#@$D S #$$$",
"%$W 6 &$X A *$k#A+d.*@s r+p =$-$;$Q@>$R@<#e 5 {.(+n.,$E.x $#'$S+",
"%.S+&$e o )$o.V.!$*@p.~$r.{$]$Q#`#^$f g 6 o e L.; D [.Z |./$($..",
"_$L.d@/#/#j@:$<$a@0@n@d@[$/#}$|$1$2$3$U K.4$5$>+7+B+6$7$o@Q._$.+"};
