/* XPM */
static char * Floor_xpm[] = {
"32 32 3 1",
" 	c #3D3D4C",
".	c #4C4F5C",
"+	c #6B6E78",
"  . .  . .   ...    .  .   . . .",
" ..............+ ..............+",
" ..............+ ...............",
"...............+ ..............+",
" ..............+ ..............+",
" ..............+ ..............+",
"................ ...............",
" ..............+................",
" ............... ..............+",
" ........ .....+...............+",
".......... ....+ ..............+",
"........... ...+ ..............+",
"...........  ..................+",
" ..............+...............+",
" ..............+ ..............+",
"  .++.+++.++++++ +++.+.++.++++++",
"   .  .  .. .  .  .   ..   . ...",
" ...............................",
" ............... ...............",
" ............... ..............+",
"...............+.... ..........+",
" ..............+ .. ............",
"................    ...........+",
" ..............+.  ............+",
" ...............  .............+",
" ..............+...............+",
" ..............+ ..............+",
"...............+ ..............+",
" . ............+ ...............",
"  .............+ ..............+",
" ..............+ ..............+",
"  ++.+.++++.++++ .++.++.++++.+++"};
