/* XPM */
static char * frame_5_32x32_xpm[] = {
"32 32 6 1",
" 	c #00FF00",
".	c #3A0911",
"+	c #811426",
"@	c #A11B31",
"#	c #000000",
"$	c #FFFFFF",
"                                ",
"                                ",
"                                ",
"                                ",
"                                ",
"                                ",
"             ........           ",
"            .+@@@@@@@.          ",
"           .+@@@@....@.         ",
"          .+@@@..####.@.        ",
"         .++@@.#######.@.       ",
"        .++++@.##$###$.@.       ",
"        .++.+@.##$###$.@.       ",
"         ...+@.#######.+.       ",
"           .++@..#####.+.       ",
"           ..++++.###.+.        ",
"         .++@@@@@@@@@@+.        ",
"         .+@@@@@@@@@@@@.        ",
"        .++@@@@@@@@@@@@.        ",
"        .+@@@@@@@@+@@@@.        ",
"       .++@@@@@@@+.+@@+.        ",
"       .+++@@+@+++.++@+.        ",
"         .+++++..#.++++.        ",
"          .+.+.####..+.         ",
"           . .###  #..          ",
"              ###  ##           ",
"               ## #             ",
"               ###              ",
"                                ",
"                                ",
"                                ",
"                                "};
