/* XPM */
static char * player2_xpm[] = {
"32 32 7 1",
" 	c #00FF00",
".	c #000000",
"+	c #F3F0F0",
"@	c #E8E8E8",
"#	c #B9B9B9",
"$	c #DCDCDC",
"%	c #696A6A",
"                                ",
"                                ",
"                                ",
"                                ",
"             ......             ",
"           ..++++++..           ",
"          .++++++++++.          ",
"         .++++++++++++.         ",
"         .++++++++++++.         ",
"        .@+++++++++++++.        ",
"        .++++.++++.++++.        ",
"        .++++.++++.++++.        ",
"        .++++.++++.++++.        ",
"        .++++++++++++++.        ",
"        .++++++++++++++.        ",
"        .++++++++++++++.        ",
"        .++++++++++++++.        ",
"        .#@+$++++++$+@#.        ",
"         .$+++@++@+++$.         ",
"         .##.$+$++$.$#.         ",
"          .. .#$$#. ..          ",
"              ....              ",
"                                ",
"              %%%%              ",
"             %%%%%%             ",
"              %%%%              ",
"                                ",
"                                ",
"                                ",
"                                ",
"                                ",
"                                "};
