/* XPM */
static char * wall_xpm[] = {
"32 32 825 2",
"  	c #6E4E43",
". 	c #7C574B",
"+ 	c #7E584D",
"@ 	c #825B51",
"# 	c #825B53",
"$ 	c #664A41",
"% 	c #442F29",
"& 	c #855D55",
"* 	c #724F46",
"= 	c #714F47",
"- 	c #714F46",
"; 	c #765148",
"> 	c #765149",
", 	c #745149",
"' 	c #694841",
") 	c #1B1005",
"! 	c #805B50",
"~ 	c #825B4F",
"{ 	c #825B50",
"] 	c #7F5A4F",
"^ 	c #7A574C",
"/ 	c #8D665B",
"( 	c #8B6259",
"_ 	c #805B51",
": 	c #674A43",
"< 	c #352820",
"[ 	c #7A564C",
"} 	c #775348",
"| 	c #6E4D43",
"1 	c #6E4D44",
"2 	c #6B4C42",
"3 	c #7C5B53",
"4 	c #543D36",
"5 	c #52362C",
"6 	c #66443B",
"7 	c #74524A",
"8 	c #6A4B45",
"9 	c #513831",
"0 	c #3A2922",
"a 	c #66473F",
"b 	c #5C3E35",
"c 	c #5B3E35",
"d 	c #5B3E34",
"e 	c #4C3127",
"f 	c #60433B",
"g 	c #60423B",
"h 	c #563B34",
"i 	c #1B0E05",
"j 	c #7B584F",
"k 	c #77554B",
"l 	c #735650",
"m 	c #6D5752",
"n 	c #6C5652",
"o 	c #563B30",
"p 	c #705046",
"q 	c #79564D",
"r 	c #63463E",
"s 	c #33251D",
"t 	c #6D4C44",
"u 	c #5F4137",
"v 	c #5D4037",
"w 	c #4F352B",
"x 	c #5B4740",
"y 	c #2E1F19",
"z 	c #2D1D15",
"A 	c #2E2016",
"B 	c #2F2017",
"C 	c #2D1F15",
"D 	c #2D1D14",
"E 	c #533A31",
"F 	c #2B1C12",
"G 	c #2A1C12",
"H 	c #25170D",
"I 	c #271A11",
"J 	c #281A11",
"K 	c #2E2017",
"L 	c #543933",
"M 	c #312218",
"N 	c #2F2217",
"O 	c #2F2219",
"P 	c #2E221C",
"Q 	c #2D211B",
"R 	c #2A1C13",
"S 	c #291B12",
"T 	c #281A10",
"U 	c #302118",
"V 	c #4F352D",
"W 	c #35261E",
"X 	c #31241B",
"Y 	c #30241B",
"Z 	c #31231B",
"` 	c #2C1F16",
" .	c #2F231B",
"..	c #715954",
"+.	c #4B3A36",
"@.	c #5C4138",
"#.	c #8C6358",
"$.	c #8E665A",
"%.	c #956B60",
"&.	c #92695F",
"*.	c #91685E",
"=.	c #8F685E",
"-.	c #8E665C",
";.	c #8B645C",
">.	c #1D1207",
",.	c #825C54",
"'.	c #8D675B",
").	c #8E665B",
"!.	c #825D53",
"~.	c #6F4C42",
"{.	c #6D4B41",
"].	c #8A645A",
"^.	c #896359",
"/.	c #865F56",
"(.	c #5B3F3A",
"_.	c #5D443C",
":.	c #926860",
"<.	c #91685F",
"[.	c #91675F",
"}.	c #90675F",
"|.	c #8F665E",
"1.	c #8E665E",
"2.	c #8D655D",
"3.	c #8C655B",
"4.	c #735855",
"5.	c #705956",
"6.	c #4C3A37",
"7.	c #573E35",
"8.	c #8A6257",
"9.	c #9C7469",
"0.	c #936B60",
"a.	c #623F37",
"b.	c #72554E",
"c.	c #6B5148",
"d.	c #734E44",
"e.	c #5F4036",
"f.	c #1C1106",
"g.	c #7E574F",
"h.	c #704C42",
"i.	c #68463C",
"j.	c #5F3E36",
"k.	c #603E36",
"l.	c #78554C",
"m.	c #6F4C43",
"n.	c #65443B",
"o.	c #412B23",
"p.	c #4E3730",
"q.	c #7E5951",
"r.	c #75534A",
"s.	c #63433B",
"t.	c #735147",
"u.	c #624239",
"v.	c #66463D",
"w.	c #6F4D44",
"x.	c #835E55",
"y.	c #6E5653",
"z.	c #6C5551",
"A.	c #473731",
"B.	c #543D33",
"C.	c #805A4F",
"D.	c #845D54",
"E.	c #7B564C",
"F.	c #765349",
"G.	c #51372D",
"H.	c #523830",
"I.	c #53372F",
"J.	c #52362F",
"K.	c #1B1106",
"L.	c #684842",
"M.	c #64453D",
"N.	c #64443D",
"O.	c #63453D",
"P.	c #62443D",
"Q.	c #60423A",
"R.	c #4B2F26",
"S.	c #563B32",
"T.	c #593D35",
"U.	c #3E2922",
"V.	c #452F26",
"W.	c #614037",
"X.	c #5F4037",
"Y.	c #5E4038",
"Z.	c #5E4138",
"`.	c #5C3F37",
" +	c #543A30",
".+	c #7D5B53",
"++	c #2B1D17",
"@+	c #291D16",
"#+	c #402A23",
"$+	c #4D352D",
"%+	c #3C2D24",
"&+	c #3C2C25",
"*+	c #3B2B24",
"=+	c #392A22",
"-+	c #2D1E16",
";+	c #2C1D15",
">+	c #2C1C14",
",+	c #513733",
"'+	c #3B2820",
")+	c #2D1E14",
"!+	c #2B1C13",
"~+	c #2A1B12",
"{+	c #2A1C14",
"]+	c #2A1D14",
"^+	c #2B1D15",
"/+	c #3E2A21",
"(+	c #49322A",
"_+	c #34251C",
":+	c #33241C",
"<+	c #33231B",
"[+	c #312119",
"}+	c #2D1F16",
"|+	c #281C12",
"1+	c #916960",
"2+	c #916860",
"3+	c #8F665F",
"4+	c #71524B",
"5+	c #503A32",
"6+	c #714E42",
"7+	c #866257",
"8+	c #8B655C",
"9+	c #8E675E",
"0+	c #8D665E",
"a+	c #825952",
"b+	c #835952",
"c+	c #805951",
"d+	c #6C4943",
"e+	c #75605B",
"f+	c #4E3F3A",
"g+	c #5B423B",
"h+	c #8C625B",
"i+	c #8C625A",
"j+	c #8D635B",
"k+	c #8B6157",
"l+	c #885F56",
"m+	c #875F56",
"n+	c #865F55",
"o+	c #79574F",
"p+	c #36271E",
"q+	c #865D53",
"r+	c #865D52",
"s+	c #7D5850",
"t+	c #67453E",
"u+	c #65443D",
"v+	c #503731",
"w+	c #47342C",
"x+	c #7F5C53",
"y+	c #76554B",
"z+	c #6C4C45",
"A+	c #72524C",
"B+	c #725049",
"C+	c #64433C",
"D+	c #604038",
"E+	c #66453C",
"F+	c #86615A",
"G+	c #775D5A",
"H+	c #4E3D3A",
"I+	c #583F37",
"J+	c #825C52",
"K+	c #7C564D",
"L+	c #67463E",
"M+	c #66453E",
"N+	c #6F4E44",
"O+	c #725045",
"P+	c #704E43",
"Q+	c #60443B",
"R+	c #35251C",
"S+	c #845B50",
"T+	c #885E53",
"U+	c #8D6459",
"V+	c #654540",
"W+	c #63443E",
"X+	c #62433D",
"Y+	c #4E362F",
"Z+	c #45322B",
"`+	c #7D5951",
" @	c #7B5950",
".@	c #7B5850",
"+@	c #76554E",
"@@	c #6B544D",
"#@	c #472F27",
"$@	c #5B3E36",
"%@	c #5D3F38",
"&@	c #674941",
"*@	c #6E534F",
"=@	c #483732",
"-@	c #533B32",
";@	c #604039",
">@	c #5F4039",
",@	c #4D3028",
"'@	c #563A32",
")@	c #5A3E36",
"!@	c #50382F",
"~@	c #32241B",
"{@	c #7F5B51",
"]@	c #7C574D",
"^@	c #815D54",
"/@	c #32221A",
"(@	c #31211A",
"_@	c #302018",
":@	c #2A1B13",
"<@	c #4F352E",
"[@	c #37241D",
"}@	c #35251D",
"|@	c #36261E",
"1@	c #34261E",
"2@	c #34271F",
"3@	c #24160C",
"4@	c #31221A",
"5@	c #33241E",
"6@	c #322520",
"7@	c #402C25",
"8@	c #51372F",
"9@	c #392820",
"0@	c #291A11",
"a@	c #2C1E14",
"b@	c #312219",
"c@	c #4D372E",
"d@	c #3E2D26",
"e@	c #372720",
"f@	c #37271F",
"g@	c #815C51",
"h@	c #90695E",
"i@	c #977066",
"j@	c #865E55",
"k@	c #886159",
"l@	c #876157",
"m@	c #845F54",
"n@	c #725247",
"o@	c #3A2A23",
"p@	c #875F55",
"q@	c #855D53",
"r@	c #7A544A",
"s@	c #8E685F",
"t@	c #8C645D",
"u@	c #89625C",
"v@	c #8B665F",
"w@	c #88625D",
"x@	c #85615B",
"y@	c #6C4F48",
"z@	c #201208",
"A@	c #946F67",
"B@	c #754F45",
"C@	c #896257",
"D@	c #825D54",
"E@	c #7B544B",
"F@	c #855F54",
"G@	c #855E54",
"H@	c #855D54",
"I@	c #845C51",
"J@	c #90675D",
"K@	c #8E655C",
"L@	c #7D584E",
"M@	c #63413A",
"N@	c #765049",
"O@	c #80594F",
"P@	c #5D3F36",
"Q@	c #382820",
"R@	c #845C52",
"S@	c #886056",
"T@	c #815B51",
"U@	c #5C3F39",
"V@	c #5B3E38",
"W@	c #714F48",
"X@	c #6E4F48",
"Y@	c #6D534E",
"Z@	c #785A54",
"`@	c #725954",
" #	c #6D5854",
".#	c #5E4A44",
"+#	c #1B1004",
"@#	c #956C62",
"##	c #956A60",
"$#	c #8D675D",
"%#	c #72534B",
"&#	c #966D64",
"*#	c #8C6259",
"=#	c #956D64",
"-#	c #7E5850",
";#	c #77524A",
">#	c #68473E",
",#	c #5B3D34",
"'#	c #5A3D35",
")#	c #54372F",
"!#	c #67463F",
"~#	c #563C35",
"{#	c #34241E",
"]#	c #7D584F",
"^#	c #856257",
"/#	c #856258",
"(#	c #775A53",
"_#	c #65514D",
":#	c #5D4641",
"<#	c #543830",
"[#	c #513730",
"}#	c #6B4740",
"|#	c #6A4F4B",
"1#	c #67524D",
"2#	c #5B4641",
"3#	c #705850",
"4#	c #6F5750",
"5#	c #735A54",
"6#	c #88635C",
"7#	c #8D675F",
"8#	c #886157",
"9#	c #8D685F",
"0#	c #3C2A22",
"a#	c #322119",
"b#	c #2F2018",
"c#	c #291A13",
"d#	c #2D1D17",
"e#	c #2E2018",
"f#	c #452F27",
"g#	c #3B2922",
"h#	c #3A2A22",
"i#	c #382924",
"j#	c #2B1E19",
"k#	c #21140C",
"l#	c #2A1D16",
"m#	c #281B13",
"n#	c #2C1F17",
"o#	c #2D1E17",
"p#	c #291D15",
"q#	c #513931",
"r#	c #342720",
"s#	c #332721",
"t#	c #33271F",
"u#	c #332720",
"v#	c #372922",
"w#	c #36271F",
"x#	c #372820",
"y#	c #36261D",
"z#	c #7F5A50",
"A#	c #735046",
"B#	c #715046",
"C#	c #362821",
"D#	c #76554D",
"E#	c #835E54",
"F#	c #825D52",
"G#	c #966E63",
"H#	c #956D62",
"I#	c #5C443D",
"J#	c #72564F",
"K#	c #946B63",
"L#	c #946A63",
"M#	c #926961",
"N#	c #94685F",
"O#	c #1D1107",
"P#	c #8D6660",
"Q#	c #906660",
"R#	c #90665F",
"S#	c #734D45",
"T#	c #8C655D",
"U#	c #8C645C",
"V#	c #654A42",
"W#	c #523C36",
"X#	c #7F5950",
"Y#	c #7D574F",
"Z#	c #715550",
"`#	c #69504D",
" $	c #5D413C",
".$	c #73524A",
"+$	c #815A52",
"@$	c #805A51",
"#$	c #805950",
"$$	c #8E655D",
"%$	c #58403A",
"&$	c #5C423B",
"*$	c #745049",
"=$	c #735048",
"-$	c #714E46",
";$	c #714E45",
">$	c #5F413A",
",$	c #714E48",
"'$	c #704E46",
")$	c #6F4E45",
"!$	c #704E45",
"~$	c #523930",
"{$	c #4F3932",
"]$	c #79554B",
"^$	c #70534D",
"/$	c #695451",
"($	c #271C13",
"_$	c #251A11",
":$	c #23170E",
"<$	c #4F362F",
"[$	c #433026",
"}$	c #3C2B22",
"|$	c #3B2B22",
"1$	c #3B2A22",
"2$	c #3B2C23",
"3$	c #442E26",
"4$	c #3D2A20",
"5$	c #33251C",
"6$	c #33241B",
"7$	c #2F1F17",
"8$	c #2E1E16",
"9$	c #2B1B12",
"0$	c #4B352E",
"a$	c #38271F",
"b$	c #33251B",
"c$	c #34261D",
"d$	c #33261D",
"e$	c #402E27",
"f$	c #50372E",
"g$	c #332219",
"h$	c #302119",
"i$	c #2F2019",
"j$	c #90685E",
"k$	c #946C62",
"l$	c #7E584F",
"m$	c #684A41",
"n$	c #3D2E26",
"o$	c #7D594F",
"p$	c #7C584F",
"q$	c #7C574E",
"r$	c #7A564D",
"s$	c #79554C",
"t$	c #78544C",
"u$	c #503932",
"v$	c #583C35",
"w$	c #7B554B",
"x$	c #7C554C",
"y$	c #7C564C",
"z$	c #896258",
"A$	c #6C4D46",
"B$	c #422F28",
"C$	c #855E53",
"D$	c #815B52",
"E$	c #986D66",
"F$	c #956C65",
"G$	c #946B65",
"H$	c #755348",
"I$	c #755248",
"J$	c #65453B",
"K$	c #593C32",
"L$	c #4C352C",
"M$	c #65453D",
"N$	c #63443D",
"O$	c #62433C",
"P$	c #63433C",
"Q$	c #412D26",
"R$	c #4C342C",
"S$	c #6C4C42",
"T$	c #6C4D43",
"U$	c #6B4D43",
"V$	c #674A40",
"W$	c #4E352F",
"X$	c #3F2C25",
"Y$	c #6F4E43",
"Z$	c #77544B",
"`$	c #735248",
" %	c #32251B",
".%	c #32231A",
"+%	c #2E1F16",
"@%	c #2D1F14",
"#%	c #2E1F15",
"$%	c #533B33",
"%%	c #2C1E15",
"&%	c #453128",
"*%	c #483129",
"=%	c #2B1C10",
"-%	c #291B0F",
";%	c #281B11",
">%	c #281A0F",
",%	c #38261E",
"'%	c #4F3A31",
")%	c #28190F",
"!%	c #26190E",
"~%	c #26180E",
"{%	c #26170F",
"]%	c #25180F",
"^%	c #23150B",
"/%	c #433028",
"(%	c #876156",
"_%	c #866056",
":%	c #855F55",
"<%	c #825E53",
"[%	c #7E5A50",
"}%	c #734F46",
"|%	c #926C64",
"1%	c #926A61",
"2%	c #825A51",
"3%	c #6B4D45",
"4%	c #916A60",
"5%	c #926B62",
"6%	c #8D665C",
"7%	c #785349",
"8%	c #7C5A50",
"9%	c #1E1309",
"0%	c #886155",
"a%	c #896357",
"b%	c #765449",
"c%	c #7C594E",
"d%	c #8C655C",
"e%	c #976C65",
"f%	c #845E57",
"g%	c #7B5A52",
"h%	c #402D26",
"i%	c #7F584F",
"j%	c #78544B",
"k%	c #74514A",
"l%	c #734F48",
"m%	c #6D4A43",
"n%	c #72504A",
"o%	c #7B554D",
"p%	c #744F48",
"q%	c #312019",
"r%	c #654941",
"s%	c #7C574F",
"t%	c #724F45",
"u%	c #7C584E",
"v%	c #7C584D",
"w%	c #7B584D",
"x%	c #67473D",
"y%	c #1B1107",
"z%	c #835C53",
"A%	c #765147",
"B%	c #755046",
"C%	c #745045",
"D%	c #7E5B51",
"E%	c #6D4B42",
"F%	c #67463D",
"G%	c #573831",
"H%	c #190F04",
"I%	c #5A3D36",
"J%	c #51352D",
"K%	c #3D2D27",
"L%	c #3B2C26",
"M%	c #3A2B23",
"N%	c #382922",
"O%	c #35271F",
"P%	c #34251D",
"Q%	c #34241C",
"R%	c #32231B",
"S%	c #473128",
"T%	c #423026",
"U%	c #37281F",
"V%	c #322218",
"W%	c #563E35",
"X%	c #38281E",
"Y%	c #34251B",
"Z%	c #322319",
"`%	c #302217",
" &	c #2F2016",
".&	c #2B1B11",
"+&	c #563E36",
"@&	c #46362E",
"#&	c #73544C",
"$&	c #8B625A",
"%&	c #886057",
"&&	c #885E56",
"*&	c #875D55",
"=&	c #6B4B43",
"-&	c #46302B",
";&	c #936961",
">&	c #91665E",
",&	c #815850",
"'&	c #8E645D",
")&	c #8D645C",
"!&	c #8B635B",
"~&	c #8B635A",
"{&	c #734F45",
"]&	c #775349",
"^&	c #775248",
"/&	c #7A554D",
"(&	c #3C2E26",
"_&	c #8C6359",
":&	c #644238",
"<&	c #6C4A3F",
"[&	c #6D4C41",
"}&	c #6A493D",
"|&	c #4B3228",
"1&	c #3F2D25",
"2&	c #855C53",
"3&	c #65413B",
"4&	c #64413B",
"5&	c #614038",
"6&	c #613E36",
"7&	c #745146",
"8&	c #765146",
"9&	c #68473F",
"0&	c #1C1006",
"a&	c #7F5850",
"b&	c #735045",
"c&	c #6C4B41",
"d&	c #6C493F",
"e&	c #724E44",
"f&	c #714D44",
"g&	c #604941",
"h&	c #583B31",
"i&	c #5A3C33",
"j&	c #5D4039",
"k&	c #2D2018",
"l&	c #63473E",
"m&	c #7C574C",
"n&	c #78554A",
"o&	c #77544A",
"p&	c #58392F",
"q&	c #54382D",
"r&	c #482F27",
"s&	c #3F2C27",
"t&	c #62453F",
"u&	c #684F4A",
"v&	c #5F403A",
"w&	c #603F3A",
"x&	c #5F3F39",
"y&	c #482921",
"z&	c #5F423A",
"A&	c #1A1005",
"B&	c #5A3E35",
"C&	c #462A21",
"D&	c #573A32",
"E&	c #37261F",
"F&	c #3A2820",
"G&	c #3A2921",
"H&	c #513A33",
"I&	c #442E27",
"J&	c #38271E",
"K&	c #281910",
"L&	c #2A1A11",
"M&	c #4B322C",
"N&	c #2D1F17",
"O&	c #271A13",
"P&	c #2F1F19",
"Q&	c #2D1D16",
"R&	c #26160F",
"S&	c #28170F",
"T&	c #2C1A12",
"U&	c #4E342D",
"V&	c #2E1D14",
"W&	c #2C1B12",
"X&	c #2D1C14",
"Y&	c #2C1E16",
"Z&	c #2F1F16",
"`&	c #845F55",
" *	c #835E53",
".*	c #7E5950",
"+*	c #845C54",
"@*	c #865C54",
"#*	c #7B564E",
"$*	c #201206",
"%*	c #8E645A",
"&*	c #8E6358",
"**	c #976C62",
"=*	c #876055",
"-*	c #845D52",
";*	c #6D4C43",
">*	c #3D2E25",
",*	c #845D51",
"'*	c #855C51",
")*	c #835C50",
"!*	c #835C51",
"~*	c #7D564B",
"{*	c #896156",
"]*	c #8A6359",
"^*	c #876056",
"/*	c #593B28",
"(*	c #9C6244",
"_*	c #B86C3E",
":*	c #855D52",
"<*	c #82635B",
"[*	c #7B5B55",
"}*	c #5D443E",
"|*	c #563A30",
"1*	c #1A1007",
"2*	c #835A50",
"3*	c #90695D",
"4*	c #8D675C",
"5*	c #684E46",
"6*	c #684F47",
"7*	c #5F4239",
"8*	c #845C50",
"9*	c #8A6255",
"0*	c #8F685C",
"a*	c #916A5E",
"b*	c #987167",
"c*	c #987368",
"d*	c #8C675D",
"e*	c #814F2D",
"f*	c #C56123",
"g*	c #AB6B48",
"h*	c #825F55",
"i*	c #795B54",
"j*	c #6D5751",
"k*	c #594A45",
"l*	c #583F38",
"m*	c #533730",
"n*	c #4F322B",
"o*	c #4C322A",
"p*	c #1A0E05",
"q*	c #7E5A4F",
"r*	c #845F53",
"s*	c #6F4F45",
"t*	c #563A33",
"u*	c #5B3E37",
"v*	c #614137",
"w*	c #3B2B23",
"x*	c #835B50",
"y*	c #815B4F",
"z*	c #876154",
"A*	c #815A4F",
"B*	c #78584D",
"C*	c #795F59",
"D*	c #7B5F59",
"E*	c #78554B",
"F*	c #B55A2A",
"G*	c #9C6548",
"H*	c #8B5F4E",
"I*	c #261910",
"J*	c #271910",
"K*	c #281B12",
"L*	c #533932",
"M*	c #2B1F16",
"N*	c #30231B",
"O*	c #37271E",
"P*	c #32231C",
"Q*	c #31231C",
"R*	c #2F2119",
"S*	c #2B1F15",
"T*	c #2B2019",
"U*	c #281B14",
"V*	c #261A11",
"W*	c #4C332C",
"X*	c #31231A",
"  . + @ # $ % & * = - ; > , ' ) ! ~ { ] ^ / ( _ : < [ } | 1 2 3 ",
"4 5 6 7 8 9 0 a b c d e f g h i j k l m n o p q r s t u v v w x ",
"y z A B C D E D F G G H I J K L M N O P Q R S T U V W X Y Z `  .",
"....+.@.#.$.%.&.*.=.-.;.>.,.'.).!.~.{.].^./.(._.:.<.[.}.|.1.2.3.",
"4.5.6.7.8.9.0.a.b.c.d.e.f.g.h.i.j.k.k.l.m.n.o.p.q.r.s.t.u.v.w.x.",
"y.z.A.B.C.D.E.F.G.H.I.J.K.L.M.N.O.P.Q.R.S.T.U.V.W.X.Y.Z.v `. +.+",
"++@+#+$+%+&+*+=+-+z ;+>+,+'+)+;+;+!+~+{+]+^+/+(+_+:+<+[+K }+|+<+",
"1+2+3+4+5+-.6+7+- 8+9+0+a+b+c+d+e+f+g+h+i+j+k+l+m+n+n+o+p+q+r+r+",
"s+t+u+v+w+x+y+] z+A+B+C+D+E+E.F+G+H+I+J+K+L+M+s.N+O+P+Q+R+S+T+U+",
"V+W+X+Y+Z+`+ @.@+@@@#@$@Y.%@&@b.*@=@-@; u.;@D+>@,@'@)@!@~@{@]@^@",
"/@(@_@:@<@[@}@|@1@2@3@_@4@4@Z 5@6@7@8@9@<+<+/@4@0@a@K b@c@d@e@f@",
"g@h@i@j@j+k@l@m@n@o@m+p@q@!.^ r@s@t@u@v@w@x@y@z@A@B@C@D@E@F@G@H@",
"I@J@K@L@L+M@N@O@P@Q@R@S@n+T@U@V@W@X@Y@Z@`@ #.#+#@###$#@@%#&#*#=#",
"-#;#>#,#'#'#)#!#~#{#]#^#/#(#_#:#g <#[#}#|#1#2#) 3#3#4#5#6#7#8#9#",
"0#a#_@b#b#b#c#d#e#f#g#h#*+i#j#k#l#m#m#n#o#p#m#q#r#s#t#u#v#w#x#y#",
"z#A#B#C#D#E#F#F#J+G#H#I#J#K#L#M#:.N#:.O#P#Q#R#S#T#U#U#V#W#X#Y#8#",
"Z#`# $l#.$+$@$@$#$1+$$%$&$*$=$* -$;$>$+#,$'$)$!$w.w.w.~${$]$^$/$",
"($_$:$<$[$}$|$|$1$2$f@3$4$5$6$b@7$8$9$0$a$5$b$c$c$d$}@e$f$g$h$i$",
"s+j$k$l$[ m$n$o$p$q$q$r$s$t$u$v$w$w$x$y$]@q$z$A$B$p@C$A#D$E$F$G$",
"H$I$t.J$K$L$O M$u+N.N$O$P$s.Q$R$S$S$T$U$U$U$V$W$X$+$X#Y$!$l.Z$`$",
" %.%b@+%@%#%$%+%+%}+}+%%}+}+&%*%=%-%-%-%;%T >%,%'%)%!%~%~%{%]%^%",
"/%(%_%:%<%[%}%|%1%2%X$3%4%5%6%7%!.!.J+8%9%0%a%C@r@b%c%d%e%f%+#g%",
"h%G@i%j%k%l%m%n%o%p%q%r%!.s%-$t%u%v%w%x%y%z%A%B%C%D%Z$E%F%G%H%I%",
"J%K%L%M%N%O%W P%Q%R%S%T%U%U%P%W _+6$V%#%W%X%Y%R+P%_+Z%`% &.&+& &",
"J@|.|.1.@&#&=.1.$&%&&&&&*&=&-&;&:.2+}.}.>&|.,&z+O#1.$$'&)&!&~&m+",
"{&]&^&/&(&m$/ _&g@:&<&[&}&|&1&2&3&4&5&6&6&7&8&9&0&a&b&{.c&d&e&f&",
"g&h&i&j&k&l&o$m&n&o&p&q&K$r&s&=$t&u&v&w&x&y&v.z&A&- u $@)@B&C&D&",
"E&F&F&G&H&I&'+J&J ~+K&L&9$a#M&}@N&O&P&Q&:@R&S&T&U&V&W&X&Y&/@Z&}@",
"R@`& *t%.*+*@*#*$*%*&*##**&.=*-*;*>*,*'*S+)*!*,*~*{*]*^*/*(*_*:*",
"_%<*[*}*S.|*Z$!#1*2*3*4*5*6*y@C%7*%+8*)*~ 9*S+0*a*b*c*d*e*f*g*8*",
"h*i*j*k*l*m*n*o*p*q*r*F#s*t*u*v*f$w*x*~ y*z*A*B*C*D*g%E*F*G*H*y*",
"G R ^+I*J*0@K*K*L*p+f@f@P%N&n#M*N*9 O*5$P*Q*R*S*T*@+U*V*W*f#b@X*"};
