/* XPM */
static char * wall_xpm[] = {
"32 32 584 2",
"  	c #454551",
". 	c #4A4A59",
"+ 	c #4C4C5B",
"@ 	c #4C4C5A",
"# 	c #545461",
"$ 	c #555562",
"% 	c #686871",
"& 	c #515156",
"* 	c #67676E",
"= 	c #5F5F68",
"- 	c #43434F",
"; 	c #484856",
"> 	c #4E4E5D",
", 	c #494958",
"' 	c #434354",
") 	c #2C2C39",
"! 	c #3B3B4B",
"~ 	c #404051",
"{ 	c #4A4A5C",
"] 	c #464657",
"^ 	c #444455",
"/ 	c #565664",
"( 	c #4A4A5A",
"_ 	c #31313B",
": 	c #41414F",
"< 	c #4C4C5C",
"[ 	c #4E4E5C",
"} 	c #52525F",
"| 	c #585864",
"1 	c #5A5A66",
"2 	c #50505E",
"3 	c #32323C",
"4 	c #474757",
"5 	c #525263",
"6 	c #4F4F60",
"7 	c #5A5A68",
"8 	c #5D5D6B",
"9 	c #5B5B69",
"0 	c #5F5F6D",
"a 	c #4E4E55",
"b 	c #67676F",
"c 	c #4F4F5C",
"d 	c #515162",
"e 	c #535364",
"f 	c #4E4E61",
"g 	c #49495C",
"h 	c #32323F",
"i 	c #3F3F50",
"j 	c #4B4B5E",
"k 	c #565669",
"l 	c #484859",
"m 	c #525264",
"n 	c #575768",
"o 	c #383843",
"p 	c #4B4B5A",
"q 	c #535363",
"r 	c #5D5D6C",
"s 	c #63636F",
"t 	c #6E6E7A",
"u 	c #60606D",
"v 	c #33333F",
"w 	c #49495A",
"x 	c #555565",
"y 	c #696976",
"z 	c #61616E",
"A 	c #636371",
"B 	c #5E5E6D",
"C 	c #3E3E48",
"D 	c #4A4A55",
"E 	c #595967",
"F 	c #535362",
"G 	c #565665",
"H 	c #49495B",
"I 	c #474759",
"J 	c #2E2E3A",
"K 	c #3C3C4D",
"L 	c #4D4D61",
"M 	c #4F4F62",
"N 	c #47475A",
"O 	c #555566",
"P 	c #545464",
"Q 	c #30303A",
"R 	c #3E3E4C",
"S 	c #61616F",
"T 	c #73737E",
"U 	c #64646F",
"V 	c #646471",
"W 	c #626271",
"X 	c #32323E",
"Y 	c #464655",
"Z 	c #4E4E5E",
"` 	c #575766",
" .	c #6B6B76",
"..	c #71717B",
"+.	c #70707B",
"@.	c #5F5F6E",
"#.	c #363642",
"$.	c #565663",
"%.	c #767681",
"&.	c #787882",
"*.	c #2E2E38",
"=.	c #414151",
"-.	c #4E4E60",
";.	c #4D4D60",
">.	c #515161",
",.	c #5E5E6C",
"'.	c #44444D",
").	c #50505C",
"!.	c #5E5E6E",
"~.	c #60606F",
"{.	c #585865",
"].	c #60606E",
"^.	c #676774",
"/.	c #5A5A69",
"(.	c #33333E",
"_.	c #3C3C4B",
":.	c #40404E",
"<.	c #494955",
"[.	c #60606A",
"}.	c #65656D",
"|.	c #5A5A64",
"1.	c #36363F",
"2.	c #3F3F4C",
"3.	c #42424F",
"4.	c #585862",
"5.	c #61616A",
"6.	c #5B5B64",
"7.	c #2D2D36",
"8.	c #454553",
"9.	c #4B4B58",
"0.	c #494957",
"a.	c #4A4A58",
"b.	c #4A4A57",
"c.	c #47474D",
"d.	c #515159",
"e.	c #53535E",
"f.	c #52525D",
"g.	c #51515D",
"h.	c #4E4E59",
"i.	c #4C4C59",
"j.	c #2A2A35",
"k.	c #343441",
"l.	c #3B3B47",
"m.	c #41414B",
"n.	c #37373D",
"o.	c #46464C",
"p.	c #55555B",
"q.	c #56565E",
"r.	c #4D4D54",
"s.	c #4B4B53",
"t.	c #4D4D55",
"u.	c #39393F",
"v.	c #44444B",
"w.	c #59595F",
"x.	c #606065",
"y.	c #54545B",
"z.	c #4F4F57",
"A.	c #505059",
"B.	c #313139",
"C.	c #282832",
"D.	c #383842",
"E.	c #5A5A5F",
"F.	c #606064",
"G.	c #5D5D62",
"H.	c #58585F",
"I.	c #3E3E45",
"J.	c #4C4C55",
"K.	c #3F3F4B",
"L.	c #383845",
"M.	c #65656E",
"N.	c #777780",
"O.	c #6D6D77",
"P.	c #666670",
"Q.	c #696975",
"R.	c #6F6F7B",
"S.	c #494950",
"T.	c #676770",
"U.	c #818188",
"V.	c #818187",
"W.	c #74747F",
"X.	c #6B6B78",
"Y.	c #3E3E4D",
"Z.	c #77777F",
"`.	c #7B7B83",
" +	c #73737C",
".+	c #7E7E85",
"++	c #515157",
"@+	c #5F5F69",
"#+	c #6A6A76",
"$+	c #5D5D6D",
"%+	c #47474F",
"&+	c #5F5F6B",
"*+	c #686872",
"=+	c #6E6E79",
"-+	c #6D6D79",
";+	c #74747E",
">+	c #484850",
",+	c #87878D",
"'+	c #7D7D85",
")+	c #6A6A75",
"!+	c #6A6A77",
"~+	c #3F3F49",
"{+	c #444454",
"]+	c #61616D",
"^+	c #555564",
"/+	c #535359",
"(+	c #505061",
"_+	c #545465",
":+	c #5C5C6D",
"<+	c #46464E",
"[+	c #66666F",
"}+	c #6D6D78",
"|+	c #5E5E6A",
"1+	c #666672",
"2+	c #6C6C74",
"3+	c #63636E",
"4+	c #72727D",
"5+	c #454555",
"6+	c #5C5C6A",
"7+	c #525261",
"8+	c #505057",
"9+	c #61616B",
"0+	c #4F4F5F",
"a+	c #616170",
"b+	c #6C6C75",
"c+	c #73737D",
"d+	c #6B6B73",
"e+	c #3C3C46",
"f+	c #3D3D4D",
"g+	c #575767",
"h+	c #515160",
"i+	c #4F4F5E",
"j+	c #42424A",
"k+	c #565660",
"l+	c #5C5C6B",
"m+	c #202025",
"n+	c #222228",
"o+	c #27272B",
"p+	c #27272A",
"q+	c #2E2E32",
"r+	c #29292E",
"s+	c #232329",
"t+	c #1D1D23",
"u+	c #212127",
"v+	c #242428",
"w+	c #303034",
"x+	c #26262A",
"y+	c #25252A",
"z+	c #222227",
"A+	c #2A2A2F",
"B+	c #26262B",
"C+	c #1B1B20",
"D+	c #202028",
"E+	c #1E1E24",
"F+	c #1A1A20",
"G+	c #1F1F24",
"H+	c #202024",
"I+	c #28282D",
"J+	c #1E1E23",
"K+	c #6F6F7C",
"L+	c #787883",
"M+	c #7A7A84",
"N+	c #6C6C77",
"O+	c #626270",
"P+	c #3A3A45",
"Q+	c #565667",
"R+	c #545463",
"S+	c #40404A",
"T+	c #6B6B74",
"U+	c #6F6F7A",
"V+	c #6B6B77",
"W+	c #757581",
"X+	c #656571",
"Y+	c #545462",
"Z+	c #2E2E39",
"`+	c #444452",
" @	c #565666",
".@	c #7A7A82",
"+@	c #8E8E95",
"@@	c #8D8D93",
"#@	c #898990",
"$@	c #777782",
"%@	c #45454E",
"&@	c #6F6F77",
"*@	c #71717C",
"=@	c #75757F",
"-@	c #5C5C69",
";@	c #353540",
">@	c #525262",
",@	c #4A4A5B",
"'@	c #62626B",
")@	c #8C8C93",
"!@	c #7D7D84",
"~@	c #6D6D75",
"{@	c #767680",
"]@	c #89898F",
"^@	c #98989C",
"/@	c #9A9A9D",
"(@	c #909095",
"_@	c #88888E",
":@	c #56565B",
"<@	c #727278",
"[@	c #75757E",
"}@	c #62626F",
"|@	c #393944",
"1@	c #5A5A6A",
"2@	c #646470",
"3@	c #555563",
"4@	c #4B4B51",
"5@	c #757580",
"6@	c #7F7F87",
"7@	c #929297",
"8@	c #8C8C90",
"9@	c #929296",
"0@	c #676769",
"a@	c #868689",
"b@	c #99999D",
"c@	c #9D9DA0",
"d@	c #919196",
"e@	c #8D8D92",
"f@	c #8B8B90",
"g@	c #5B5B60",
"h@	c #78787E",
"i@	c #787881",
"j@	c #5E5E6B",
"k@	c #575765",
"l@	c #6D6D76",
"m@	c #70707A",
"n@	c #75757D",
"o@	c #8C8C91",
"p@	c #5D5D60",
"q@	c #7F7F83",
"r@	c #939397",
"s@	c #8B8B91",
"t@	c #696973",
"u@	c #72727B",
"v@	c #88888F",
"w@	c #85858B",
"x@	c #59595E",
"y@	c #515154",
"z@	c #505055",
"A@	c #505056",
"B@	c #4E4E54",
"C@	c #4A4A52",
"D@	c #26262E",
"E@	c #404049",
"F@	c #43434C",
"G@	c #3B3B44",
"H@	c #2F2F3A",
"I@	c #34343E",
"J@	c #2E2E35",
"K@	c #4B4B52",
"L@	c #3A3A43",
"M@	c #43434B",
"N@	c #33333C",
"O@	c #4A4A4F",
"P@	c #404048",
"Q@	c #4C4C54",
"R@	c #54545A",
"S@	c #525257",
"T@	c #3F3F42",
"U@	c #76767D",
"V@	c #717178",
"W@	c #4D4D52",
"X@	c #5A5A62",
"Y@	c #65656F",
"Z@	c #545460",
"`@	c #484857",
" #	c #50505F",
".#	c #575764",
"+#	c #32323D",
"@#	c #3C3C49",
"##	c #424251",
"$#	c #4B4B59",
"%#	c #5D5D69",
"&#	c #54545E",
"*#	c #52525C",
"=#	c #61616C",
"-#	c #676771",
";#	c #5F5F6A",
">#	c #5C5C67",
",#	c #64646D",
"'#	c #393940",
")#	c #43434E",
"!#	c #4A4A50",
"~#	c #5C5C66",
"{#	c #5C5C6C",
"]#	c #353541",
"^#	c #4C4C5F",
"/#	c #4D4D5F",
"(#	c #595969",
"_#	c #46464D",
":#	c #676773",
"<#	c #686876",
"[#	c #3B3B45",
"}#	c #73737F",
"|#	c #686874",
"1#	c #63636D",
"2#	c #6E6E7B",
"3#	c #4C4C5E",
"4#	c #4F4F63",
"5#	c #585868",
"6#	c #5F5F6C",
"7#	c #4F4F56",
"8#	c #5D5D68",
"9#	c #666673",
"0#	c #656573",
"a#	c #636370",
"b#	c #474755",
"c#	c #656570",
"d#	c #4C4C5D",
"e#	c #58585D",
"f#	c #808087",
"g#	c #696974",
"h#	c #585867",
"i#	c #515163",
"j#	c #63636A",
"k#	c #6C6C76",
"l#	c #777781",
"m#	c #71717D",
"n#	c #45454F",
"o#	c #51515E",
"p#	c #6A6A72",
"q#	c #4B4B4F",
"r#	c #68686E",
"s#	c #6F6F74",
"t#	c #6B6B71",
"u#	c #4C4C58",
"v#	c #464654",
"w#	c #373746",
"x#	c #424253",
"y#	c #414146",
"z#	c #575761",
"A#	c #595963",
"B#	c #5D5D66",
"C#	c #5E5E66",
"D#	c #5B5B66",
"E#	c #36363E",
"F#	c #4B4B57",
"G#	c #4E4E5B",
"H#	c #474756",
"I#	c #34343F",
"J#	c #5C5C61",
"K#	c #656569",
"L#	c #343439",
"M#	c #3C3C44",
"N#	c #3D3D48",
"O#	c #454550",
"P#	c #393945",
"Q#	c #262630",
"R#	c #30303B",
"S#	c #35353F",
"T#	c #3A3A42",
"U#	c #4E4E56",
"V#	c #494951",
"W#	c #3C3C47",
"X#	c #41414D",
"Y#	c #2A2A34",
"Z#	c #87878E",
"`#	c #828289",
" $	c #8A8A90",
".$	c #5C5C60",
"+$	c #343440",
"@$	c #434352",
"#$	c #6F6F79",
"$$	c #7F7F88",
"%$	c #45454C",
"&$	c #565661",
"*$	c #383844",
"=$	c #5B5B6A",
"-$	c #838389",
";$	c #919195",
">$	c #5B5B5E",
",$	c #7A7A7F",
"'$	c #7C7C85",
")$	c #7B7B84",
"!$	c #484858",
"~$	c #74747D",
"{$	c #6C6C78",
"]$	c #555567",
"^$	c #84848B",
"/$	c #616165",
"($	c #77777D",
"_$	c #7A7A83",
":$	c #797983",
"<$	c #7B7B85",
"[$	c #2E2E3B",
"}$	c #424252",
"|$	c #656572",
"1$	c #7D7D86",
"2$	c #73737B",
"3$	c #535358",
"4$	c #79797F",
"5$	c #686873",
"6$	c #404050",
"7$	c #797981",
"8$	c #6D6D74",
"9$	c #4A4A5D",
"0$	c #2F2F3D",
"a$	c #434353",
"b$	c #72727C",
"c$	c #58585C",
"d$	c #858589",
"e$	c #5D5D6A",
"f$	c #222229",
"g$	c #1F1F26",
"h$	c #232328",
"i$	c #2A2A2E",
"j$	c #252528",
"k$	c #313135",
"l$	c #303033",
"m$	c #2C2C30",
"n$	c #2B2B2F",
"o$	c #202027",
"p$	c #1C1C23",
"q$	c #18181F",
"r$	c #1E1E26",
"s$	c #202026",
"t$	c #2E2E30",
"u$	c #323233",
"v$	c #3D3D3E",
"w$	c #363638",
"x$	c #2B2B2E",
"y$	c #25252B",
"z$	c #1C1C22",
"A$	c #646472",
"B$	c #535360",
"C$	c #525258",
"D$	c #4C4C60",
"E$	c #59596A",
"F$	c #939398",
"G$	c #8C8C92",
"H$	c #3A3A44",
"I$	c #3D3D46",
"J$	c #525260",
"K$	c #7C7C86",
"L$	c #48485B",
"M$	c #48485C",
"N$	c #47475B",
"O$	c #505063",
"P$	c #454554",
"Q$	c #5B5B6B",
"R$	c #7E7E86",
"S$	c #84848A",
"T$	c #85858C",
"U$	c #666675",
"V$	c #636372",
"W$	c #4D4D5D",
"X$	c #666674",
"Y$	c #525265",
"Z$	c #49495D",
"`$	c #4A4A5F",
" %	c #515165",
".%	c #7D7D83",
"+%	c #60606B",
"@%	c #646473",
"#%	c #373743",
"$%	c #676775",
"%%	c #7E7E87",
"&%	c #82828A",
"*%	c #474750",
"=%	c #4F4F5D",
"-%	c #565668",
";%	c #505064",
">%	c #4B4B5F",
",%	c #4A4A5E",
"'%	c #30303C",
")%	c #464656",
"!%	c #4A4A51",
"~%	c #5A5A67",
"{%	c #4E4E5F",
"]%	c #373742",
"^%	c #25252D",
"/%	c #28282F",
"(%	c #31313E",
"_%	c #2E2E3C",
":%	c #2F2F3B",
"<%	c #333340",
"[%	c #22222A",
"}%	c #2D2D38",
"|%	c #464650",
"1%	c #363641",
"2%	c #323237",
"3%	c #3D3D47",
"  . + @ # $ % & * = - ; > , ' ) ! ~ { ] ^ / ( _ : < [ } | 1 2 3 ",
"4 5 6 7 8 9 0 a b c ] d e f g h i j k l m n 5 o p q r s t u r v ",
"w m x y z A B C D . E F G H I J K L M N O P , Q R P S T U V W X ",
"Y Z `  ...+.@.#.Y , $.%.&.t z *.=.-.f ;.>.F ,.'.).!.~.{.].^./.(.",
"_.:.<.[.}.}.|.1.2.3.4.5.5.= 6.7.8.9.0.. a.b.= c.d.e.f.g.h.| i.j.",
"k.l.m.n.o.p.q.r.s.'.t.u.v.w.x.w.y.z.A.B.C.D.z.E.F.G.H.n.I.J.K.L.",
"M B ,.r.M.N.O...P.Q.R.S.T.U.V.P.O.W.X.m.Y.x E Z.`. +.+++@+#+$+m ",
"f q S %+%  .&+*+=+-+;+>+T.,+'+)+R.&.!+~+{+e , ]+)+^+ ./+M.^.~.(+",
"_+:+S <+[+ +#+}+|+z 1+v.2+.+3+/ 7 4+1+~+5+5 O 6+V 7+A 8+9+!+].0+",
"a+/.].t.b+c+,.> O /.s >+d+}+1 n G 1+-+e+f+g+h+h+7+i+7 j+k+u 6+l+",
"m+n+o+p+q+r+s+t+u+n+u+v+w+x+y+z+z+A+B+C+D+u+E+F+E+t+G+H+I+y+E+J+",
"1 !+K+L+M+N+O+P+F Q+>.#+R+^ + S+T+T U+V+W+X+Y+Z+`+ @.@+@@@#@$@%@",
"&@T *@=@;+4+-@;@> P >@u u ,@] o '@....U.)@!@Z./+~@{@]@^@/@(@_@:@",
"<@[@$@c+{@&.}@|@, 1@A 0 2@3@]+4@~@=@5@6@7@8@9@0@a@b@c@d@e@e@f@g@",
"h@'+i@..;+W.}@|@< B !+j@V Y+k@j+l@c+m@n@l@`.o@p@q@r@s@t@u@v@w@x@",
"y@z@A@B@C@>+e+D@X e+E@F@G@H@I@J@K@L@M@N@e+'.<+r+O@p@& P@Q@R@S@T@",
"6.U@V@W@X@Y@Z@`@R+ #.#+#@###$#%#&#| |.N@*#=#t@-#;#>#,#'#)#[.*+&#",
"` =+`.!#~#+.@. @{#l+~.]#( ^#/# @(#z O._#f.-+:##+}@<#E [#2.}#=@R+",
"x /.|#++1#2#-@7+(#a+ @h H 3#4# @5#6#m@7#8##+9#0#!+*@a#'.b#<#c#g+",
"d#8 &.e#<@f#g#h#$+5#0+(.5+;.i#q G ,.R.++j#:#1+k#l#T m#n#+ Q+ @(+",
"Y.o#p#q#r#s#t#e.u#v###H@w#x#=., : 3.h.y#t.z#A#B#C#[.D#E#F#G#H###",
"I#P+%+E.J#K#F.L#M#m.N#n#O#P#L.Q#R#L.m.|@S#%@y.n.T#U#V#W#K.P#X#Y#",
"i.R+s Z#`#o@ $.$<@i@t V @.>@/#+$@$(+P G z #$$$%$&$N+N+].1@(#(#*$",
", =$:#Z.-$o@;$>$,$'$)$t A x i#+$!$ @~.|#4+$$'+%+9+~${$=$q ]$Q+e+",
"!$5#G a#)$^$ $/$($_$:$<$<#1@^#[$}$/.j@|$+.1$2$3$4$@@5$9 g+P :++$",
"6$>@_+Z 9 7$U.r.8$'+:$<$|$(#9$0$a$5#,.|#b$ .N.c$d$(@U e$h#8 l+H@",
"f$g$E+t+t+h$i$j$k$l$m$n$B+o$p$q$r$E+s$z+G+v+t$u$v$w$x$m+J+y$s$z$",
"A$=$~.n#B$O+5$ .)$Z.:$C$8#x 9$D$9$e E$o b#!+v@F$G$d@!@H$2 V+B A ",
"6#$+E I$J$` E #+=@K$M+p.&$_+L$M$N$O$m ]#P$Q$)+R$.+S$T$T#G#V U$V$",
"W$Z 6 o $#B X$R.$@:$5@%$0._+Y$Z$`$^# %+$!$e 5 >.6#u@.%+++%9#@%>@",
"-.>@E$#%@ $%R.%%&%5@-+*%=%-%;%>%L$,%f '%)%x e e >.E |#!%[.V+~%{%",
"[#]%e+^%+#*%8+p.p.A@'./%]%]#(%[$_%:%<%[%}%|%#%]%1%o m.2%P@j+[#3%"};
